<svg xmlns="http://www.w3.org/2000/svg" viewBox="0 0 34.61 53.18"><g id="Layer_2" data-name="Layer 2"><g id="Layer_2-2" data-name="Layer 2"><g id="Kolde_drikke" data-name="Kolde drikke"><path d="M7.24,5.26a36.88,36.88,0,0,0,.28,6.3c.18,1.54-.68,3-1.47,4.25A14.8,14.8,0,0,1,3.7,18.57C2,20.24,1.85,22.79,1.54,25S1,29.77.8,32.14C.18,36.87.68,41.64.6,46.42c-.07,2.22,0,5.2,2.57,5.9,2,.52,5,.29,7.09.43s5-.59,5.46-3c.35-2.28-1-4.67-.78-7,0-4.8.26-9.56.52-14.33a20.51,20.51,0,0,0-1.9-10.24c-.55-1-1.28-2-1.78-3.13a12,12,0,0,1-.69-3.57c-.16-1.32-.32-4.29-.61-5.56,0,0,0,0,0,0s0,0,.16,0,0-.05,0-.05c0,1.46-1.84,1.05-2.78.88a1,1,0,0,1-.69-1.47Zm0,.08a1.51,1.51,0,0,0,.06.81A.89.89,0,0,0,8,6.58c.8.06,2.47.49,2.45-.75,0,0,0,0,.05-.15s.13,0,.21,0a.32.32,0,0,1,.07.08,11.6,11.6,0,0,1,.37,2.09l.43,3.55a11.71,11.71,0,0,0,.72,3.41c.5,1,1.23,2,1.84,3a18.84,18.84,0,0,1,2,7c.37,2.46-.23,8.24-.28,10.78-.08,3.52-.59,7.15.14,10.6,1.43,4.58-1.07,7.28-5.76,7L6.67,53C5,52.86,2.84,53,1.53,51.62S.38,48.17.34,46.42c0-4.77-.65-9.56-.16-14.33C.39,29.71.59,27.33.89,25s.59-5,2.41-6.81a15.68,15.68,0,0,0,2.34-2.62,6.35,6.35,0,0,0,1.51-4c0-.86-.1-1.8-.11-2.67a11.88,11.88,0,0,1,.19-3.53Z"/><path d="M4.45,25.91c-3.44.35-2.22,2.68-2,5.07A44.54,44.54,0,0,1,2.75,41c0,.56-.15,1.14.17,1.49,2.4,1.14,5.53.8,8,0,.79-.38,2.31-.53,2.23-1.65-.09-3.35-.48-6.71,0-10.07.16-1.54.84-3.34-.57-4.3-2.51-1-5.47-.82-8.13-.62Zm0-.07a36.66,36.66,0,0,1,6.71-.24,3.94,3.94,0,0,1,1.74.38c1.82.94,1.25,3.44,1,4.94-.4,3.3-.1,6.66-.15,10a1.61,1.61,0,0,1-.28,1,2,2,0,0,1-.81.53,15.81,15.81,0,0,1-9.15.72,1.64,1.64,0,0,1-.82-.37c-.47-.47-.35-1.15-.37-1.72,0-3.34-.13-6.67-.31-10-.08-2.49-1-4.9,2.42-5.19Z"/><path d="M13.08,35.91c-.57-.49-1.19-.32-2-.64a5,5,0,0,1-.93-.72,2.19,2.19,0,0,0-1-.41A4.49,4.49,0,0,1,5.6,31.59l.06-.05c1.27.81,2.39,1.48,3.68,2.22a5.25,5.25,0,0,0,2,.92c.65.11,1.74.36,1.85,1.2l-.07,0Z"/><path d="M9.59,6.65c1.74.13.29-2.86.75-3.88.12-.66,1.06-1,1.18-1.48s-.37-.53-.69-.61c-.91-.27-4.77-.68-4,1a2.5,2.5,0,0,1,.82,1.15c.42,1-.16,2.39-.14,3.23s1.5.47,2.1.55Zm0,.07a14.37,14.37,0,0,1-2,0C6.36,6.36,7.14,4.4,7,3.65a2.1,2.1,0,0,0-.73-1.44A1.34,1.34,0,0,1,6.94.14,2.79,2.79,0,0,1,8.33,0a17.31,17.31,0,0,1,3.21.6c.87.5.09,1.53-.33,1.9-.48.57-.21,1.52-.36,2.23s-.16,2.16-1.26,2Z"/><path d="M8.54,30.59A3.3,3.3,0,0,1,11,28.78l.45,0-.11.34c-.74,1.45-.56,4.41-2.74,4.45a1.11,1.11,0,0,1-1-1c0-.85.51-1.37.91-2Zm.06,0a2.3,2.3,0,0,0-.28,1.82c.08.21.19.25.41.3a.84.84,0,0,0,.63-.22A4.41,4.41,0,0,0,10.81,29l.33.31c-.86.4-1.94.49-2.54,1.3Z"/><path d="M7.25,33.6a7.33,7.33,0,0,0-.74,1.34,6.42,6.42,0,0,0-1.2.45c-.33.17-.57.31-.54.71.14.68.17,1.78.73,1.8a2.09,2.09,0,0,0,1-.14c.42-.27.16-1.45,0-1.85a.79.79,0,0,0-.76-.41l-1.06.26.84-.65c1.37-.75,2.05,1.43,1.56,2.41A1.35,1.35,0,0,1,4.79,38a2.3,2.3,0,0,1-.11-2.53A1.54,1.54,0,0,1,7.4,36.64c0,1.46-2.55,2.4-3.09.89a1.93,1.93,0,0,1,1.36-2.42c1.57-.19,2.28,2.51.81,3.08A1.66,1.66,0,0,1,4.4,36.63a1.45,1.45,0,0,1,1.33-1.18c.68-.11,1.24.82.71,1.27l0,0-.26-.11c0-.11,0-.06.27,0h0c.33-.38-.14-1-.61-.85a.88.88,0,0,0-.08,1.75c1.09.42,1-1,.52-1.49-.75-.57-1.28.64-1.13,1.3-.07.13.53.29.9.12a1.05,1.05,0,0,0,.24-1.91c-1.34-.61-1.83,1.39-1.2,2.29a1.08,1.08,0,0,0,1.77-.41A2,2,0,0,0,6.71,36c-.15-.39-.63-.78-1-.49l-.21-.39c1.11-.31,1.75,1,1.78,1.83a1.38,1.38,0,0,1-.5,1.44,2,2,0,0,1-.71.2,1.37,1.37,0,0,1-1.7-1.15c-.06-.66-.41-1.46.13-2a3.67,3.67,0,0,1,1.84-.69l-.1.08a6,6,0,0,1,.92-1.19l.06,0Z"/><path d="M8.22,34.09a11.9,11.9,0,0,0,1.4,3.13c-.2-.21-1-.87-1.07-1.16,0-.1-.07-.12-.09-.12s-.18.1-.24.25A2.59,2.59,0,0,0,8,37.35a1.1,1.1,0,0,0,1.5,1c1.72-.58,1-3.37-.75-2.4l0-.27c.11.19.92-.13,1.18.19,1,1,0,3.64-1.5,2.79a1.7,1.7,0,0,1-.27-2.56c.26-.41,1-.87,1.47-.42a3.21,3.21,0,0,1,.7,1.82.76.76,0,0,1-.2.67,2.36,2.36,0,0,1-2.09,0,1.41,1.41,0,0,1-.64-2c.7-.83,2.23-1.26,2.94-.25.86,1.33.39,3.68-1.58,2.7-.84-.45-1.94-1.65-1-2.53.89-.71,2.2-1,2.22.51,0,.43.18,1-.26,1.32a.35.35,0,0,1-.46-.06l.06,0a.26.26,0,0,0,.34,0c.3-.29.06-.79,0-1.17-.09-.56-.31-1-.91-.59-1.43.58-.65,1.46.3,2,.35.17.79.19.87-.24s0-1.57-.7-1.65c-.46,0-1.58.42-1.28,1a1.12,1.12,0,0,0,1.1.62,2.31,2.31,0,0,0,.61,0c.08-.19-.25-1.82-.6-1.67-.87.18-1.51,1.87-.52,2.41,1.18.68,1.78-1.18,1.4-2-.12-.25-.28-.41-.53-.35s-.71.21-1-.12l-.11-.14.13-.13a1.62,1.62,0,0,1,2.58.79c.55,1.63-1.43,3.36-2.91,2.31A2,2,0,0,1,7.8,36c.25-.49,1-.67,1.12,0a.74.74,0,0,0,.1.23l-.3.22c-.18-.46-.73-2-.5-2.28Z"/><path d="M11.22,1.24c-.4-.41-1.1-.4-1.64-.51C8.75.7,7.73.52,7.06,1.1c-.16.17-.37.6-.07.52l1.78-.18.89-.08c.45-.06,1.33-.19,1,.58-.65.86-2.22-.07-2.78.92,0,.08,0,.06.12.08.47,0,.83-.11,1.33-.14a.55.55,0,0,1,.45.89c-.37.21-.59.09-.94.18s-.93.39-1,.79c.35,0,2.22-1.45,2.43,0C10.12,5.85,8.62,5.06,8.21,6c0,0,0-.08,0-.06a1.49,1.49,0,0,0,.53-.08c.37-.09,1-.26,1.34-.31.73,0,.6.91,0,1a8.74,8.74,0,0,1-2.45,0l0-.11c-.21-.62.48-.79.72-.69.5.21,1.3.2,1.34-.39l.15.23c-.38-.16-1.33.69-1.83,0a.58.58,0,0,1,.17-.94c.61-.1.76.1,1.25,0A.85.85,0,0,0,10,4.05l.18.34c-.59-.2-1.7.74-2.34.06-.38-.61.44-1.16.94-1.29s.81,0,.94-.24c0,.06.09.15.12.15a7.42,7.42,0,0,1-1.74.38.73.73,0,0,1-.59-.23C7.12,2.61,7.78,2,8.32,2c.91.05,1.68.31,2.28-.54l.15.55a.92.92,0,0,0-.59,0,4.2,4.2,0,0,1-1.77.48A2.73,2.73,0,0,1,7.11,2,1.78,1.78,0,0,1,9.44,1a2.54,2.54,0,0,0,1.69.11l-.2.33V1.1l.33.37a11,11,0,0,0-3-.05.94.94,0,0,0-.62.39l-.41-.5c1-.22,3.44-.83,3.8.55,0,.44-.34.51-.58.63-.77.27-1.49.15-2.07.35s-.06.46.66.08c1.25-.38,1.48,1.23.42,1.61C8.92,4.8,7.92,4,8,4.86c.06.26.38.26.7.13.59-.31,1.5,0,.93.75a1,1,0,0,1-1.48.12l.06,0c.44.49,1.54,0,1.39-.57-.13-.24-.52-.17-.81,0S7.84,5.44,7.69,5a.69.69,0,0,1,.1-.66c.4-.5,1.18,0,1.56-.15s.58-1-.14-.78c-.27.07-.65.39-1.19.15a.62.62,0,0,1-.35-.73c.51-1,2.2-.52,2.79-1,0,0,0,.1,0,.11-.17-.31-.61-.27-1-.28a9.12,9.12,0,0,0-2.76.57l.4-.75A2.3,2.3,0,0,1,9.23.6a14.35,14.35,0,0,1,2.45.17v.86a2,2,0,0,1-1.39.29c-.78-.07-1.85-.68-2.36.09l-.16-.47c1.12.69,2.1-.75,3.29-.23l.41.19A2.52,2.52,0,0,1,9.82,2.74a5.26,5.26,0,0,1-1.44-.07.36.36,0,0,0-.28.15s0,.06,0,0-.05,0,.07,0a9.9,9.9,0,0,0,1.68-.35.51.51,0,0,1,.4.12C10.7,3,10,3.68,9.64,3.7c-.55.06-1,0-1.28.47,0,0,0-.07,0-.1.67.14,1.36-.59,2.31-.14A1.46,1.46,0,0,1,9.5,5.17a3.64,3.64,0,0,1-1.19,0s0,0,0,0,.11.19.33.14.73-.44,1.35-.2l.15.06a1.06,1.06,0,0,1-.43,1c-.59.44-1.16.13-1.7.08,0,0,0,0,0,0l-.18-.12a9.08,9.08,0,0,0,1.73,0c.3,0,.59-.08.56-.15s.06,0,0,0a1.43,1.43,0,0,0-.38.08c-.4,0-1.3.41-1.66.26s-.15-.7.09-.89A2,2,0,0,1,9.48,5c.53,0,.68-.63.06-.6a6.37,6.37,0,0,0-1.18.48.74.74,0,0,1-.55.1c-.47-.21-.14-.82.12-1.05.44-.44,1.18-.38,1.69-.49.1-.11-.08-.37-.27-.35s-.54.1-.86.1-.55.1-.76-.08a.32.32,0,0,1-.07-.35A1.69,1.69,0,0,1,9.37,2.1,2.65,2.65,0,0,0,10.22,2c.26,0,.42-.34.26-.46s-.52,0-.8,0L7,1.78c-.52.05-.29-.58,0-.78C7.67.38,8.73.58,9.59.63c.58.12,1.26.11,1.69.57l-.06,0Z"/><path d="M12.36,51.34A.79.79,0,0,0,13,51c.34-.66.52-1.44.86-2.1.24-.51.81-1.51.21-1.87-.62.81-.37,2.14-1.16,2.94-.44.41-1,.31-1.41.58-.81.7.25.79.85.75Zm0,.07a4.63,4.63,0,0,1-1.23.07c-.62-.15-.49-1-.14-1.4a1.74,1.74,0,0,1,.86-.46c1.05-.13.93-1.33,1.56-2.13.17-.32.69-1.08,1-.39.6,1.38-.43,4.22-2.07,4.31Z"/><path d="M13.46,24.51c0,.2.18.36.25.08.5-2.19-1-7-3.56-7.26l.28-.27a3.78,3.78,0,0,0,.93,1.59,9.09,9.09,0,0,1,2.1,5.86Zm-.08,0c-.2-1.68-1.23-3.16-2-4.6-.55-.93-1.41-1.61-1.46-2.87v-.3a3.28,3.28,0,0,1,2.33,1.57c1,1.28,2.27,2.71,2.08,4.48a6.09,6.09,0,0,1-.47,1.83c-.13.33-.43.21-.44-.11Z"/><path d="M6.13,17.15c.22.64-.84,1.36-1.18,1.8s-.81.93-1.28,1.53H3.59c-.48-1.28,1-2,1.86-2.58.27-.19.63-.38.61-.72l.07,0Z"/><path d="M2.88,21.79c-.27,1.1.36,2,.06,3.06l-.07,0a1.36,1.36,0,0,1-.58-1.55,3.57,3.57,0,0,1,.52-1.57l.07,0Z"/><path d="M2,47.85a5.42,5.42,0,0,0,.64,2.71c.23.32.54.27,1,.32S4.56,51,5,50.75l.07,0c-.15.87-1.48,1-2.18.75-.87-.35-1-1.44-1-2.19a5.74,5.74,0,0,1,.13-1.5Z"/><path d="M34.55,32.25c-2-1.66-4.73-1.09-7.13-1.16-2.31.13-5.24-.27-7.23,1-.08.17.23.21.38.25,2.15.2,4.39.09,6.56.29a26.64,26.64,0,0,0,4.64,0,14.86,14.86,0,0,1,2.78-.43Zm.06,0c0,.07-.07.09-.12.11a6.73,6.73,0,0,1-.76.38l-.91.29a14.74,14.74,0,0,1-5.72.44c-1.91-.1-3.76-.22-5.69-.35a3,3,0,0,1-1.49-.47c-1.08-1.35,3-1.48,3.7-1.68,3-.24,9.06-1.7,11,1.28Z"/><path d="M34.61,32.2c-.46,3.85-1,7.67-1.33,11.51-.28,1.93.09,3.93-.64,5.79-.8,2.1-3.35,2-5.2,1.87-1.49-.18-3.15.35-4.45-.65a2.78,2.78,0,0,1-.63-1.5c-.37-1.9-.74-3.81-1.06-5.71A53.11,53.11,0,0,1,20.1,32c.61,3.84,1.08,7.63,2,11.42.37,1.91.68,3.81,1,5.72a2.25,2.25,0,0,0,.4,1.17,1.81,1.81,0,0,0,1.12.43l2.89.27c6.26,1,5.14-2.74,5.19-7.29a49.77,49.77,0,0,1,2-11.47Z"/><path d="M33.42,40.78c-.15-.53-.66-.69-1.12-.8a9.64,9.64,0,0,0-3.08,0C27.6,40.48,26.59,42,24.67,42a3.31,3.31,0,0,1-2.88-1.72l.06,0a4.38,4.38,0,0,0,2.82,1c1.38,0,3.08-1,4.47-1.49a4.38,4.38,0,0,1,3.33-.3c.54.19,1.18.73,1,1.36Z"/></g></g></g></svg>