<svg width="24" height="24" viewBox="0 0 24 24" fill="none" xmlns="http://www.w3.org/2000/svg">
<path d="M22.0125 16.225C20.475 16.225 18.9875 15.975 17.6 15.525C17.1625 15.375 16.675 15.4875 16.3375 15.825L14.375 18.2875C10.8375 16.6 7.525 13.4125 5.7625 9.75L8.2 7.675C8.5375 7.325 8.6375 6.8375 8.5 6.4C8.0375 5.0125 7.8 3.525 7.8 1.9875C7.8 1.3125 7.2375 0.75 6.5625 0.75H2.2375C1.5625 0.75 0.75 1.05 0.75 1.9875C0.75 13.6 10.4125 23.25 22.0125 23.25C22.9 23.25 23.25 22.4625 23.25 21.775V17.4625C23.25 16.7875 22.6875 16.225 22.0125 16.225Z" fill="#1D1917"/>
</svg>
