<svg xmlns="http://www.w3.org/2000/svg" viewBox="0 0 58.42 40.57"><g id="Layer_2" data-name="Layer 2"><g id="Layer_2-2" data-name="Layer 2"><g id="Søde_sager" data-name="Søde sager"><path d="M37.38,10.1a8.39,8.39,0,0,1,3-7.08,4.25,4.25,0,0,1,1.07-.44,3.91,3.91,0,0,0,2-1.51c.08-.11.13-.25.11-.25s0,0-.09,0c-.75-.1-1.3.59-1.92,1.18s-1,1.08-1.44,1.66V3.57s.12.1.18,0c.18.1-.22.25-.34,0A7,7,0,0,1,41.1,1.59,3.68,3.68,0,0,1,43,0c1.55-.28,1.82,1,.67,1.9a3.37,3.37,0,0,1-2.11,1,2.67,2.67,0,0,0-1,.28A5.78,5.78,0,0,0,38.81,6c-.63,1.27-.91,2.88-1.43,4.14Z"/><path d="M34.92,11.72a.81.81,0,0,0-.77,0,23.53,23.53,0,0,0-2.4,1.09c-1.46.54-1.53,1.48-.84,2.75l.12.25A3.73,3.73,0,0,0,27.79,19c-.05.46,0,1.07.54,1.26v.08a.88.88,0,0,1-.81-.44c-1.16-2,1-4.66,3.15-4.5l-.21.31a4.94,4.94,0,0,1-.17-1.88c.33-1.31,1.68-2,2.85-2.35.57-.13,1.47-.41,1.84.23l-.06,0Z"/><path d="M40.52,13.39a2,2,0,0,1,1.92,1.71A3.82,3.82,0,0,1,42,17c-.45.69.35.63.75,1.24A1.88,1.88,0,0,1,42.59,21a2.88,2.88,0,0,1-1.15.65l0-.06c1-1.06,1.48-2.24.41-3.29a1.3,1.3,0,0,1-.36-.67c-.05-.35.21-.53.3-.68.72-1.21-.21-2.64-1.25-3.45l0-.07Z"/><path d="M42.94,20A28.53,28.53,0,0,1,49,23.48l-.61.14c-5.92,1.39-11.83-.4-17.68-1.15-6.67-.81-13.39-1.51-20-2.57,5.53-.84,11.37-1.9,16.82-2.28Q24,18.37,20.42,19c-2.38.44-4.75.86-7.14,1.24V19.5c5.86.77,11.69,1.81,17.53,2.72,5.67.83,11.83,1.83,17.51.85l-.11.5c-1.57-1.35-3.66-2.42-5.26-3.55Z"/><path d="M10.79,19.94c-1.66.07-1.12,1.76-.95,2.88s.25,2.51.3,3.77,0,2.55.18,3.69c.66,2.11,4.63,1.53,6.45,1.89,8.46.87,17.49,3.51,26,3.08,1.2-.13,2.64,0,3.16-.89s.47-2.42.79-3.52a71.88,71.88,0,0,1,1.88-7.29L47.3,31c-.33,1.3-.11,2.52-.76,3.79S44.09,35.88,42.82,36c-7.67.56-14.88-2.12-22.35-3.11-2.51-.39-5-.29-7.51-.45a4.64,4.64,0,0,1-2.79-1.06,1.9,1.9,0,0,1-.49-1c-.22-2.59,0-5-.23-7.55,0-.86-.45-2.11.4-2.76a1.5,1.5,0,0,1,.94-.23v.07Z"/><path d="M9.78,27.33c-3.38.84-7.34,2-8.78,5.49-.65,1.5-.55,3.64.94,4.56s3.45.56,5.17.47a146.33,146.33,0,0,1,22,.18A105.86,105.86,0,0,0,50.86,37c3-.49,8.2-2,6.62-5.91-1.69-2.41-5-.9-7.46-.89a4.34,4.34,0,0,1-2.65-.72l.05-.06c3.24,2,7.92-2.24,10.56,1.37,1.1,1.82,0,4.14-1.68,5.15A15.33,15.33,0,0,1,51,37.72a86.49,86.49,0,0,1-11,1c-5.5.43-11-.3-16.45-.8-6.42-.52-12.79.39-19.19.71-3.54.16-5.3-2.87-3.92-6C2,29,6.38,27.68,9.78,27.33Z"/><path d="M11.55,38.06c2.54,0,4.77,1.41,7.09,1.82a20.89,20.89,0,0,0,7.27,0c4.88-.63,9.71-1.14,14.59-1.77l0,.07c-5.88,2-12.13,2-18.25,2.28a18.57,18.57,0,0,1-3.73.07c-2.51-.43-4.79-1.77-7-2.44Z"/><path d="M9.6,30.1c-1.84,0-4.13,1-3,2.7a2.68,2.68,0,0,0,1.37.91,22,22,0,0,0,7.35,1.19c5,.07,10.16-.68,15-.51a52,52,0,0,1-18.79.48c-1.82-.37-4.19,0-5.48-1.69-1-1.32.21-3,1.66-3.18A6.17,6.17,0,0,1,9.6,30v.07Z"/><path d="M46.92,31.18A2.38,2.38,0,0,1,49,31c.62.38,1.23,1.12.86,1.87a2.9,2.9,0,0,1-1.67,1.26,9.67,9.67,0,0,0-1.78.63l-.06,0a2.68,2.68,0,0,1,1.56-1.33,6,6,0,0,0,1.61-.74c.58-.52-.21-1.05-.73-1.06s-1.15-.17-1.83-.37v-.07Z"/><path d="M2,35.08a8.08,8.08,0,0,0,3.24,1c1.17.11,2.29-.23,3.44.25v.08a5.89,5.89,0,0,1-3.52.26A6.08,6.08,0,0,1,2,35.08Z"/><path d="M53.41,31.66c-.14.08-.19-.12-.06-.15s.24.23.33.33c.55.8.86,2.11,0,2.85-.3.24-.87.45-1.17.09-.06,0-.06-.21,0-.22s.09.08.19,0a2.05,2.05,0,0,0,.86-2.14,3.45,3.45,0,0,0-.25-.83s0,0,0,0l.07,0Z"/><path d="M54.91,30.83c.77.18,1.81,1.19,1.29,2,0,.2-.45.31-.41.08.16,0,.09,0,0-.13s0,0,0,0a1.86,1.86,0,0,1-.25-.89,2,2,0,0,0-.64-1l0-.07Z"/><path d="M37.57,10.45a2.64,2.64,0,0,0-3.21,2.63c.09,1.66,1.62,2.67,3,3.43.37.22.77.06,1.19-.26,1.2-.9,2.31-2.52,1.6-4a5.14,5.14,0,0,0-2.49-2A2.21,2.21,0,0,0,35,11.6a3.55,3.55,0,0,0-.25,2.33c.41.7,1.41.72,2,1.31.32.16.76.94,1,.74.7-.55,1.55-1.5,1.33-2.48-.16-.79-.86-2.06-1.68-2.14a2.27,2.27,0,0,0-2.19,1.49,4.16,4.16,0,0,0,.38,2.86,1.42,1.42,0,0,0,1.27.12A2.73,2.73,0,0,0,37.74,11a1,1,0,0,0-1.39.2l-.07,0a1.14,1.14,0,0,1,1.57-.38,3.1,3.1,0,0,1,.83,4.69c-1.53,1.68-4.06,1.71-4.16-1a3.15,3.15,0,0,1,1.2-3.37,2.27,2.27,0,0,1,3.43.6,4,4,0,0,1,.73,1.69,2.86,2.86,0,0,1-1,2.52c-.31.31-.8.86-1.37.65a1.16,1.16,0,0,1-.44-.34,5.25,5.25,0,0,0-1.95-1.45c-1.19-.63-.7-2.29-.29-3.29A2.56,2.56,0,0,1,37.71,10a5.91,5.91,0,0,1,2.78,2c.94,1.72-.17,3.68-1.57,4.74a1.67,1.67,0,0,1-1.9.33c-2-1-4.27-3.44-2.58-5.72a2.82,2.82,0,0,1,3.15-1l0,.07Z"/><path d="M10.05,22.73a92.8,92.8,0,0,0,27.78,3.48c2.74.06,5.37,1.05,8.11.83.38,0,.78-.09.88-.29l0,.26a3.27,3.27,0,0,0-2-.69c-9.26-1.38-18.7.07-27.95-1.47-2.33-.62-5.61-.56-6.93-2.93a44.83,44.83,0,0,1,15.82,1,49.92,49.92,0,0,0,12.65,2h.3a.28.28,0,0,1,.25.12c.18.29-.12.45-.36.4l-1.91-.1v-.52c2.19-.1,4.42-.14,6.6-.36l.14,0h0a.19.19,0,0,0-.11.14.23.23,0,0,0,.09.24c-7.08-.49-16.2-.52-23.27-1.06-3.34-.34-6.9-.28-9.91-2l-.42-.25.48,0a37.74,37.74,0,0,1,14.15,1.15,97.67,97.67,0,0,0,14,2.3c2.86.25,6.1.67,8.78.23,0,.09.08.13,0,.06a4.73,4.73,0,0,0-.49-.16c-2.05-.63-6-.63-8.15-.78-9.47-.65-18.81-2.81-28.29-3,0,0,.27-.35.26-.35a1.5,1.5,0,0,0,.91.95,22.8,22.8,0,0,0,4.67.79c6.24.7,13.12,1.1,19.17,2.82l2,.57c-7.86.74-15.57-1.35-23-3.64,2.86-1.73,6-.27,8.87.52a45,45,0,0,0,7.87,1.15c2.34.15,5.66.52,8,.45,2,.05,4.15-.42,6.13.35a3.17,3.17,0,0,1,1.66,2.19c-6.35-.43-12.72-1.07-19-1.87L18.6,24.09,14,23.52a7,7,0,0,1-3.45-1.05c-1.11-.72-.78-2,.57-2.08a37.67,37.67,0,0,1,8.12,1.14c5.24,1.13,13,1.66,18.4,2.18,2.32.25,4.62.48,6.93.91.78.19,1.71.59,1.88,1.49l0,.19-.19,0a23.21,23.21,0,0,1-13.36-.68,62.32,62.32,0,0,0-13.21-2.57A54.12,54.12,0,0,1,33,25.42a22.5,22.5,0,0,0,6.56,1.27A36.8,36.8,0,0,0,46.23,26l-.16.22c-.12-.67-.89-1-1.59-1.17-2.26-.4-4.59-.63-6.88-.85l-9.25-.79c-5.41-.31-10.68-1.86-16-2.34-.71-.08-2.64,0-1.37.92a6.42,6.42,0,0,0,3.15.91c2.9.32,10.82,1.29,13.82,1.66,6.14.78,12.28,1.41,18.46,1.84l-.38.49a2.07,2.07,0,0,0-1.1-1.25,5.08,5.08,0,0,0-1.82-.35,76.86,76.86,0,0,1-8-.09l-4-.3A48.2,48.2,0,0,1,19.2,22.57a5.86,5.86,0,0,0-3.71.15l0-.65c6.42,1.93,13,3.78,19.79,3.46l-.08.67A77.87,77.87,0,0,0,22.52,24l-6.42-.7c-2-.45-5.7,0-6.12-2.55a139.94,139.94,0,0,1,19.29,1.61c3.14.39,6.27.77,9.41,1a70.33,70.33,0,0,1,7.15.54c.78.21,1.64.18,2.25.82a.81.81,0,0,1,.14.65,1,1,0,0,1-.71.72C41.32,26.71,35.15,25,29.07,24,26,23.39,23,22.34,19.83,21.88a44.54,44.54,0,0,0-9.45-.07l.07-.28c2.94,1.65,6.5,1.58,9.78,1.89,5.84.37,14.3.57,20.23.76a19.71,19.71,0,0,1,3.26.24.27.27,0,0,1,.13.27.24.24,0,0,1-.19.2,13.05,13.05,0,0,1-1.87.21c-1.69.11-3.38.18-5.06.26v-.52l1.91.09h.12s0,0-.1,0a.27.27,0,0,0,.05.52l-.78,0a50.1,50.1,0,0,1-12.3-1.94,46.22,46.22,0,0,0-15.1-1l.25-.5c.82,1.21,2.6,1.37,3.94,1.77a62.93,62.93,0,0,0,13.84,1.31c5.44.07,10.94-.07,16.34.77a3.63,3.63,0,0,1,2.28.85l.12.12-.09.14a1.47,1.47,0,0,1-1.23.51,15,15,0,0,1-3.55-.24c-4.62-1.07-9.32-.39-14-.91a83.42,83.42,0,0,1-18.39-3.6Z"/><path d="M10.19,28a164.14,164.14,0,0,0,17.54,1.93A90.71,90.71,0,0,1,41,31.47c1.43.42,3.09.45,4.28,1.42l.25.26a35.59,35.59,0,0,1-9-.35c-7.2-.86-14.48-.42-21.68-1.32-1.41-.32-3.4,0-4.2-1.47l-.13-.37a51.34,51.34,0,0,1,9.19.55c5,.77,12.29,1.71,17.41,2.36l4.36.54,2.18.27c.51.07,1.39.23,1.57-.28l.18.34a18.32,18.32,0,0,0-4.09-.94c-9.9-1.56-20-1.11-29.9-2.36l.3-.45c.44.75,1.52,1,2.5,1.16,3.06.57,6.16.88,9.23,1.43,0-.16-.05.35.06-.35h.06l1.34.22c3.24.54,6.73,1.21,10,1.59a37.3,37.3,0,0,0,11.41-.15L46,34c-.58-1.56-3-1.24-4.38-1.43a106.44,106.44,0,0,0-15.77-.16l0-.63A105.69,105.69,0,0,0,43,33.58h.18a.72.72,0,0,1,.26.69,1.27,1.27,0,0,1-.82.81c-5.38,1.51-10.89-.91-16-2-3.4-1-16.64-.21-16.55-4.92a61.27,61.27,0,0,1,9.27.41c2.94.45,5.75,1.38,8.59,2a38.06,38.06,0,0,0,8.68.62c1.12,0,11.44-.15,9.08,2.15a8.58,8.58,0,0,1-3.42.19c-4.39-.39-8.73-1.28-13.08-1.9-5.77-.93-11.75-.48-17.47-2.06l-.4-.11a18.87,18.87,0,0,1,13.3,1.58,19.64,19.64,0,0,0-12.85-1.46v-.21c5.68,1.51,11.64,1,17.46,1.88,4.37.57,8.68,1.42,13.07,1.75a8.78,8.78,0,0,0,3.12-.15c.2-.09-.09-.25-.21-.32-5.68-1.52-11.68.07-17.44-1.23-2.9-.59-5.69-1.52-8.56-1.95A56.19,56.19,0,0,0,10.44,29l.38-.44a1.8,1.8,0,0,0,1.29,1c4.81,1.38,9.8,1.08,14.74,2.14,5.25,1,10.48,3.93,15.81,2.44,0,0,.05-.06.05,0s0,.07,0,0l.27.14c-6.49-.32-13.07-.77-19.41-2.4a130.22,130.22,0,0,1,20.71.26,2.57,2.57,0,0,1,2.4,2,37.59,37.59,0,0,1-12,.36c-2.79-.29-5.83-.8-8.61-1.24l-2.76-.42h-.06c.1-.71,0-.2,0-.36h0c-3.08-.4-6.19-.59-9.26-1.11C13,31.2,11.74,31,11.11,30l-.31-.52c8.71,1,17.54.9,26.27,1.84,2.94.41,5.91.55,8.72,1.64,0,1.21-1.46,1.22-2.29,1l-2.18-.28L37,33.15,28.25,32c-5.79-.69-11.56-2-17.41-1.83l.25-.37c.2.51.93.72,1.6.83a127.38,127.38,0,0,0,15.13,1.11c5.77-.05,11.54,1.53,17.29,1.09l-.1.3a4.38,4.38,0,0,0-2-.65c-8-1.6-16.15-1.22-24.22-2.18-2.88-.4-6.15-.9-8.61-2.31Z"/></g></g></g></svg>