<svg xmlns="http://www.w3.org/2000/svg" viewBox="0 0 58.19 45.48" fill="#f5f5f5"><g id="Layer_2" data-name="Layer 2"><g id="Layer_2-2" data-name="Layer 2"><g id="Varme_retter" data-name="Varme retter"><path d="M45.37,19.19c.88-2.74,2-5.73,3.09-8.43C50.4,6.59,52.1-.06,57.77,0h.09l.08.09c.65.79-.17,1.95-.44,2.73a172.07,172.07,0,0,1-7.93,16.45Q52.39,12,55.78,4.91L56.9,2.55c.33-.75,1-1.64.63-2.13l.17.1a5.62,5.62,0,0,0-5,2.33C50.89,5.24,50.28,8.3,49.09,11a83.86,83.86,0,0,1-3.72,8.18Z"/><path d="M50.77,17.54a1.85,1.85,0,0,1,1.88,2.19,3.35,3.35,0,0,1-2.13,2.4,56.48,56.48,0,0,1-6.24,1.43c-4.18.81-8.32,1.69-12.53,2.37-8.52,1.54-16.9-1.33-25.27-2.54a5.75,5.75,0,0,1-3.05-1.2A2.27,2.27,0,0,1,3.14,19c1.67-1.62,4-1.58,6.1-2.15a138.16,138.16,0,0,1,25.32-3c2.13-.07,4.26-.07,6.38,0s4.54-.13,6.3.77c-4.11-.92-8.47-.22-12.66-.18a189,189,0,0,0-25.2,3.13c-1.61.43-4.63.59-5.81,1.84-1.51,2,1.12,3.41,3,3.63,4.16.84,8.33,1.7,12.51,2.42a33.32,33.32,0,0,0,12.59-.1c2.27-.42,13.62-2.53,15.66-2.87s4.51-.55,5.1-2.75a1.7,1.7,0,0,0-1.63-2.08v-.07Z"/><path d="M52,14c2.63,1.44,5,4.68,4,7.78-1.71,3.4-8.84,3-12.17,3.7-7.3,1-14.54,2.8-22,2.62-6.19,0-12-2.62-17.83-4.52l-1.75-.6C0,22.27-.79,20.08.94,18.23a7.56,7.56,0,0,1,3.31-1.86,80.67,80.67,0,0,1,43.69-3.72A90.84,90.84,0,0,0,4.5,17l-1.7.65c-1.39.58-3,2.53-1.75,3.89.76.78,2.06,1.05,3.18,1.51L7.7,24.35c4.58,1.73,9.24,3.5,14.2,3.45,7.4.12,14.56-2.14,21.88-3,3.25-.66,12.72-.07,12.08-4.92a7.38,7.38,0,0,0-1.21-3.35A13.58,13.58,0,0,0,52,14Z"/><path d="M.48,20.71c1.29,8,4.77,16.9,12.88,20,4.78,1.45,9.92,1.84,14.86,2.43a30.63,30.63,0,0,0,19.1-4.41,9.37,9.37,0,0,0,3.52-3.25c1.91-4.5,2.89-9.86,4.7-14.3Q54.33,26.07,53,31a31.24,31.24,0,0,1-1.55,4.86,9.59,9.59,0,0,1-3.74,3.58,29.3,29.3,0,0,1-19.55,4.16c-3.35-.41-6.65-1-10-1.47C6.55,41.38,1.09,31.18.48,20.71Z"/><path d="M19.56,42.86c3.69,3.93,9.29,1,13.83,1,2.69,0,6.16,1.37,8-1.36l.07,0a3.34,3.34,0,0,1-2.13,2.08c-2.91,1-5.84-.48-8.81,0-2.95,0-5.93,1.8-8.81.44A4.14,4.14,0,0,1,19.5,42.9l.06,0Z"/><path d="M12.35,36.28c3.58,2.85,8,3.95,12.31,5C22.55,41.77,20,41,18,40.06a17.74,17.74,0,0,1-5.64-3.78Z"/><path d="M22.86,39.13c1.47.68,2.9.22,4.41.56l0,.07a2.35,2.35,0,0,1-2.32.41,5.42,5.42,0,0,1-2.14-1l0-.07Z"/><path d="M49.07,34.72a8.94,8.94,0,0,1-4.43,4.21,4.76,4.76,0,0,1-2.08.25V39.1c1-.52,2.54-1.17,3.56-1.73a13.3,13.3,0,0,0,3-2.65Z"/><path d="M50.69,18.83c-3.58,1.14-7.39.41-11.07.56s-7.41.13-11.11.35c-6.45.4-12.93,1.08-19.32,2.11-.69.12-2,.17-2,1L7,22.68a141.34,141.34,0,0,0,22.4-2.14c3.74-.59,7.33-1.67,11.1-2.14A30.28,30.28,0,0,1,49,19c.93.14,3,.41,2.32,1.85a43.15,43.15,0,0,0-11.82,1.43A69.59,69.59,0,0,1,10,23c-1.42-.24-3-.55-4.37-.85-.6-.06-1.61-.51-1.21-1.31,2-.38,3.94.29,5.85.39s3.72.4,5.6.53c7.46.55,15,1,22.43-.33,3.7-.67,7.4-1.71,11.23-1.79.95,1.11-.4,2.08-1.43,2.16-6.3,1-13,2.58-19.33,3.22a57.33,57.33,0,0,1-11.19-.56c-1.9-.26-6.49-.74-8.35-1-.95-.19-2.16-.68-2.19-1.83H7.2l38.44-1.07c.81,0,2.56-.29,2.39,1-5.57,1.09-11.2,1.8-16.82,2.51-4.86.6-10,1.13-14.73-.53a3.06,3.06,0,0,1-1.86-1.28l-.23-.42h.49a213.57,213.57,0,0,0,29.06-.92c1.2-.15,2.82-.13,3.43-1.27l0,.35c-.59-.8-2.85-.2-3.76-.19-4.09.41-8.55.94-12.6,1.47l-8.39,1.1c-3,.39-6.6,1.13-9.18-1.15a104.86,104.86,0,0,1,37.14.24c-10.44.69-20.89,1.91-31.36,1.5-3.27,0-6.61-.92-9.84-.43-.12.05-.1.08-.11.07a.5.5,0,0,0,.17.13,13.91,13.91,0,0,0,2.76.1,204.12,204.12,0,0,0,23.44-1.7c3.21-.29,7.11-1.72,9.76.92A198.15,198.15,0,0,1,25,24a18.89,18.89,0,0,1-7.09-.62,15.83,15.83,0,0,1,8.28-1.87A126.88,126.88,0,0,0,42.29,21c2.68-.23,5.47-.86,8.14,0a7.47,7.47,0,0,1-5,1.49v-.07A7.33,7.33,0,0,0,50.25,21l0,.11c-2.59-.78-5.31-.15-8,.11a121.75,121.75,0,0,1-16.09.62,15.85,15.85,0,0,0-7.7,1.65l0-.36c3.67,1.09,9.33.12,13.14,0,4.42-.32,8.82-.73,13.18-1.44l-.13.45c-2.5-2-6-.62-8.92-.38a203.09,203.09,0,0,1-23.5,1.83l-2.39,0c-.55-.1-1.12-.18-1.27-.91-.19-2.07,9.08-.26,10.69-.43,3.13.15,6.26.11,9.39,0C34.94,22,41.19,21.45,47.45,21l0,.72a101.85,101.85,0,0,0-33,.1l.15-.64a6.25,6.25,0,0,0,3.82,1c8.05-.74,17.13-2.27,25.19-3,1.33,0,3.58-.79,4.49.63L48,20c-.77,1.5-2.57,1.49-4,1.65s-2.77.26-4.15.37a210.68,210.68,0,0,1-25,.44l.26-.4c.67,1,2.38,1.24,3.54,1.59,4.11.92,8.34.48,12.49,0,5.57-.68,11.15-1.35,16.66-2.39l-.16.17c-.12-.69-1.43-.4-2-.44L43.08,21,38,21.13l-10.25.25-20.5.5.13-.14a1.34,1.34,0,0,0,.71,1c1.21.68,2.69.6,4,.83l5.55.67a56.21,56.21,0,0,0,11.14.51C34.12,24.25,40,22.88,45.31,22l2.75-.5c.76-.06,1.86-.7,1.29-1.48a92.94,92.94,0,0,0-10.94,1.87c-10.73,1.95-23.77.41-33.48-.67,0,.28.54.36.85.43l1.44.29a72.21,72.21,0,0,0,32.11-.25,44.47,44.47,0,0,1,11.79-1.41l-.3.19c.12-.16-.22-.46-.62-.58A32.83,32.83,0,0,0,40.53,19c-3.7.45-7.36,1.53-11.06,2.09A140.16,140.16,0,0,1,7,23.1H6.81c-.34-1.32,1.42-1.55,2.32-1.66a187.85,187.85,0,0,1,19.36-2q5.57-.27,11.13-.24c3.65,0,7.61.5,11.07-.37Z"/></g></g></g></svg>