<svg xmlns="http://www.w3.org/2000/svg" viewBox="0 0 58.54 27.93" fill="#f5f5f5"><g id="Layer_2" data-name="Layer 2"><g id="Layer_2-2" data-name="Layer 2"><g id="Panini"><path d="M44.88.89a10.72,10.72,0,0,0-5.5-.64c-.94.08-1.87.19-2.82.25s-1.89.08-2.83.08A26.33,26.33,0,0,0,28.18,1c-1.81.4-3.65.86-5.52,1.16-3.7.62-7.5.89-10.92,2.46A9.71,9.71,0,0,0,9.35,6.06a2.85,2.85,0,0,0-1.1,2.36A1.72,1.72,0,0,0,8.8,9.58,5.83,5.83,0,0,0,10,10.3c.84.43,1.67.86,2.52,1.23a11.51,11.51,0,0,0,5.36,1.11,32,32,0,0,0,5.49-1A22.31,22.31,0,0,1,29,10.91a27.77,27.77,0,0,0,5.56-.14c1.82-.29,3.6-.88,5.42-1.36.91-.25,1.83-.48,2.76-.66s1.9-.25,2.82-.37a4.78,4.78,0,0,0,2.52-.85,2.31,2.31,0,0,0,.32-2.48A7.06,7.06,0,0,0,44.88.89Zm0-.07A7.44,7.44,0,0,1,48.59,5a3.59,3.59,0,0,1,.27,1.42,1.89,1.89,0,0,1-.55,1.38,5.2,5.2,0,0,1-2.69,1.09c-3.75.38-7.15,2-10.95,2.66a25.91,25.91,0,0,1-5.69.16,21.06,21.06,0,0,0-5.5.66,28.36,28.36,0,0,1-5.62.86,12,12,0,0,1-5.55-1.3c-.85-.41-1.68-.87-2.5-1.33a5.7,5.7,0,0,1-1.2-.8A2,2,0,0,1,8,8.44a3.1,3.1,0,0,1,1.2-2.55,11.12,11.12,0,0,1,2.44-1.48c3.45-1.6,7.26-2.12,10.92-2.83C24.4,1.27,26.19.74,28.06.4A22.58,22.58,0,0,1,33.74.11c.94,0,1.88.08,2.81.06S38.42.09,39.36.05A11.44,11.44,0,0,1,44.92.82Z"/><path d="M7.6,9.38a1.71,1.71,0,0,0-1.89.1,1.65,1.65,0,0,0-.53,1.71l-.09-.12C7.17,12.2,9.66,12.22,12,13.21a5.94,5.94,0,0,1,2.9,2.37A5.7,5.7,0,0,0,15.75,17a3,3,0,0,0,1.5.64,6.74,6.74,0,0,0,3.44-.54c1.1-.45,2.17-1,3.25-1.56a15.09,15.09,0,0,1,7.11-1.39c.6,0,1.21,0,1.81.08a11.82,11.82,0,0,0,1.76.07,2.58,2.58,0,0,0,1.48-.58,8.56,8.56,0,0,1,1.57-1,4,4,0,0,1,3.82.39,3.7,3.7,0,0,0,1.4.84A7.92,7.92,0,0,0,44.6,14a15.2,15.2,0,0,0,3.46-.49,3.26,3.26,0,0,0,1.4-.81,2.64,2.64,0,0,0,.6-1.5,4.22,4.22,0,0,1,.25-.92,3,3,0,0,1,.54-.81,1.89,1.89,0,0,0,.44-.67.58.58,0,0,0-.13-.63,2.82,2.82,0,0,0-.78-.3c-.28-.08-.57-.15-.86-.21a10.73,10.73,0,0,0-1.78-.24V7.37a12.21,12.21,0,0,1,1.81.1,8.87,8.87,0,0,1,.9.14,2.68,2.68,0,0,1,.92.3,1,1,0,0,1,.32,1,2.21,2.21,0,0,1-.47.87,2.45,2.45,0,0,0-.6,1.53,3.22,3.22,0,0,1-.69,1.82,3.88,3.88,0,0,1-1.65,1,13.14,13.14,0,0,1-3.66.59,8.22,8.22,0,0,1-1.9-.08,4.43,4.43,0,0,1-1.69-1A3.26,3.26,0,0,0,38,13.4a7.2,7.2,0,0,0-1.45.93,3.24,3.24,0,0,1-1.85.67,13.66,13.66,0,0,1-1.85-.13c-.59-.07-1.19-.12-1.79-.16a13.31,13.31,0,0,0-7,1.09c-1.1.49-2.13,1.12-3.25,1.6a7.49,7.49,0,0,1-3.6.73,3.32,3.32,0,0,1-1.81-.67,4.92,4.92,0,0,1-1.07-1.55,5.63,5.63,0,0,0-2.62-2.1c-2.11-1-4.68-1.06-6.82-2.39l-.07,0,0-.08a1.92,1.92,0,0,1,.77-2,1.84,1.84,0,0,1,2.08.05Z"/><path d="M10.06,13.53a1.68,1.68,0,0,0,0,1.92,2.29,2.29,0,0,0,.74.85,3.31,3.31,0,0,0,1.11.42c.79.14,1.55.31,2.31.38a10.83,10.83,0,0,0,1.13.12,1.79,1.79,0,0,0,1.08-.2l.06,0a1.52,1.52,0,0,1-1.08.75,4.61,4.61,0,0,1-1.28.09,5.66,5.66,0,0,1-2.37-.8c-.35-.21-.71-.41-1.08-.59a3.5,3.5,0,0,1-1.11-.68,1.63,1.63,0,0,1-.4-1.34,1.2,1.2,0,0,1,.84-1Z"/><path d="M8.63,12.74A2.8,2.8,0,0,0,7.71,14a1.41,1.41,0,0,0-.19.79,1,1,0,0,0,.45.68,14.74,14.74,0,0,0,1.55.67,4.11,4.11,0,0,0,1.6.5l0,.07a1.94,1.94,0,0,1-1.92.17,4.35,4.35,0,0,1-.83-.43,2,2,0,0,1-.72-.7,4.33,4.33,0,0,1-.38-.9,2.54,2.54,0,0,1-.18-1,1.38,1.38,0,0,1,1.5-1.19Z"/><path d="M41.7,14.34A5.68,5.68,0,0,1,37,15.59c-.81-.11-1.59-.33-2.38-.44a7.85,7.85,0,0,0-2.37,0c-1.55.21-2.89,1.11-4.58,1.41a7.65,7.65,0,0,1-3.7-.3c-.2-.07-.39-.15-.57-.23a.41.41,0,0,0-.21,0h0l0,0s0,.05,0,0l.05-.05a.06.06,0,0,1,0,.07s0,.05-.06.05h-.11a.11.11,0,0,1-.08-.13.2.2,0,0,1,.06-.11.48.48,0,0,1,.38,0l.59.09a9.2,9.2,0,0,0,1.17.08,9.76,9.76,0,0,0,2.29-.2c1.48-.24,3-1.08,4.7-1,.82,0,1.62.12,2.43.17s1.61.07,2.4.07a9.55,9.55,0,0,0,4.57-.69Z"/><path d="M20,17.52a26.12,26.12,0,0,1,4.15,0,17.7,17.7,0,0,0,2.06.17,7,7,0,0,0,2-.33c.67-.2,1.33-.38,2-.53s1.34-.35,2-.48a28.4,28.4,0,0,1,4.14-.53v.07a28.51,28.51,0,0,1-8.11,1.88c-.69.08-1.39.09-2.08.16s-1.39.18-2.09.22A14.52,14.52,0,0,1,20,17.6Z"/><path d="M10.24,17.24a5.34,5.34,0,0,0,2.47,1.23,8.18,8.18,0,0,0,1.41.41,5.49,5.49,0,0,0,1.46.05,23.59,23.59,0,0,0,2.85-.37,12.65,12.65,0,0,0,1.35-.33,1,1,0,0,0,.5-.31,2.06,2.06,0,0,1,.23-.31.44.44,0,0,1,.4-.17v.08c-.22.07-.2.32-.29.57a1.36,1.36,0,0,1-.58.67,5.57,5.57,0,0,1-1.44.58,7.41,7.41,0,0,1-3,0,12.42,12.42,0,0,0-1.47-.22c-.5,0-1,0-1.52,0a3.45,3.45,0,0,1-1.45-.56,2.13,2.13,0,0,1-.94-1.25Z"/><path d="M49.37,13.57a3,3,0,0,1,1.27-.65,4.3,4.3,0,0,0,.72-.09.77.77,0,0,0,.49-.42c.08-.34-.09-.59-.33-.9a2.41,2.41,0,0,1-.67-1.31l.06,0a6.52,6.52,0,0,1,1.22.82,1.6,1.6,0,0,1,.37.81.92.92,0,0,1-.34.88c-.25.18-.49.24-.7.37s-.39.32-.6.46a2,2,0,0,1-1.47.13Z"/><path d="M47.19,13.67A1.62,1.62,0,0,1,47.8,15a2.51,2.51,0,0,1-.37,1.43A4.14,4.14,0,0,1,45,18a46,46,0,0,1-5.56,1.13c-3.74.49-7.53.53-11.24,1.09a28,28,0,0,0-5.39,1.43l-2.64,1a13.83,13.83,0,0,1-2.79.79,4.26,4.26,0,0,1-2.94-.57c-.84-.52-1.58-1.06-2.35-1.63a10.37,10.37,0,0,1-2-2,7.79,7.79,0,0,1-1.22-2.57l.07,0a8.91,8.91,0,0,0,3.54,4.15c1.58,1,3.09,2.31,4.85,1.92a18.05,18.05,0,0,0,2.63-.76l2.67-.91a22.56,22.56,0,0,1,5.57-1.17c1.89-.17,3.77-.2,5.63-.42s3.72-.53,5.57-.87,3.69-.67,5.5-1.08a3.85,3.85,0,0,0,2.3-1.21,2,2,0,0,0,0-2.46Z"/><path d="M19,19.5a26.21,26.21,0,0,1,7.8-1.85c1.33-.1,2.67-.1,4-.18s2.66-.23,4-.42l3.94-.59a19.18,19.18,0,0,0,1.92-.38,7.56,7.56,0,0,0,1.74-.75,7.84,7.84,0,0,1,1.92-.8,14.74,14.74,0,0,1,2-.25,6.27,6.27,0,0,0,3.74-.92l0,.06a3.77,3.77,0,0,1-1.74,1.06,14,14,0,0,1-2,.39,12.66,12.66,0,0,0-1.91.36,8.13,8.13,0,0,0-1.73.8,6.66,6.66,0,0,1-1.92.8,18.85,18.85,0,0,1-2,.33c-1.33.17-2.67.25-4,.3s-2.67.12-4,.25-2.64.36-3.95.56c-2.63.36-5.24.74-7.85,1.3Z"/><path d="M39.34,0a21.4,21.4,0,0,1,4,1.11,9.8,9.8,0,0,1,1.9.84A6.92,6.92,0,0,1,46.83,3.3l0,.06a13.68,13.68,0,0,1-1.92-.75c-.62-.27-1.19-.64-1.79-.95A30.49,30.49,0,0,0,39.32.07Z"/><path d="M41.93,4.61a9.06,9.06,0,0,0-4.32-2.74c-.83-.26-1.68-.39-2.52-.62A18.57,18.57,0,0,1,32.56.44V.37a13.22,13.22,0,0,1,2.67.15,11.23,11.23,0,0,1,2.57.79A8.67,8.67,0,0,1,42,4.57Z"/><path d="M28.26.82c1.51.57,3,1.06,4.6,1.49.78.21,1.57.35,2.34.6a6.68,6.68,0,0,1,1.15.48,6,6,0,0,1,.54.33c.11.11.48.33.27.6l0-.05c0-.14-.18-.19-.38-.24a4.74,4.74,0,0,0-.57-.15L35,3.64a15,15,0,0,1-2.32-.76,35.5,35.5,0,0,1-4.45-2Z"/><path d="M30.72,4.08c-.75-.18-1.47-.37-2.22-.53L26.27,3a18.82,18.82,0,0,1-2.21-.56c-.36-.13-.72-.26-1.07-.42a1.41,1.41,0,0,0-1-.22l0-.06c.3-.35.84-.27,1.2-.22a10.5,10.5,0,0,1,1.12.2,18.44,18.44,0,0,1,2.18.7l2.16.74c.72.25,1.44.55,2.14.82Z"/><path d="M32.4,7.68a24.65,24.65,0,0,0-7.71-3.59,36.82,36.82,0,0,0-4.17-.76c-1.4-.22-2.81-.31-4.25-.41V2.84a15.41,15.41,0,0,1,4.34-.26,18.21,18.21,0,0,1,4.26.93,23,23,0,0,1,7.58,4.11Z"/><path d="M12.28,4.4a16,16,0,0,1,4-.33,8.21,8.21,0,0,1,2,.23,6.07,6.07,0,0,1,1.87.85l0,.07c-.7,0-1.35-.11-2-.19s-1.28-.26-1.93-.37a21,21,0,0,0-4-.19Z"/><path d="M11.14,15.56a.78.78,0,0,1-.13-.47V15l.05,0a5.73,5.73,0,0,1,1.82,1.13l.13.12-.18,0a4,4,0,0,1-1.62-.39,1.42,1.42,0,0,1-.76-1.46l0-.1.1,0a6.29,6.29,0,0,1,2.68,1.9l.19.23-.3-.05a6.72,6.72,0,0,1-2.09-.54,2.51,2.51,0,0,1-1.42-1.67L9.58,14l.24.07a15.65,15.65,0,0,1,2.33.8,5.31,5.31,0,0,1,2,1.49l.3.36L14,16.66A6.08,6.08,0,0,1,11.52,16a2.67,2.67,0,0,1-.94-1,2.12,2.12,0,0,1-.24-.65,2,2,0,0,1,0-.35.59.59,0,0,1,.18-.44.51.51,0,0,1,.48-.11,1,1,0,0,1,.35.13l.56.31a11.86,11.86,0,0,1,1,.69c.34.26.67.52,1,.81l.46.44a.53.53,0,0,1,.2.49.58.58,0,0,1-.35.39,2.83,2.83,0,0,1-2.62-.34,6.2,6.2,0,0,1-1-.83,1.35,1.35,0,0,1-.38-.68.7.7,0,0,1,.51-.78,2.68,2.68,0,0,1,1.39.15,5.44,5.44,0,0,1,3,2.41l.22.38-.44.1a9,9,0,0,1-1.55.16,3.73,3.73,0,0,1-1.63-.27,3.33,3.33,0,0,1-1.13-1.22,6.29,6.29,0,0,1-.67-1.44l-.2-.63.64.16a6.08,6.08,0,0,1,3,1.77,5.05,5.05,0,0,1,.56.7.92.92,0,0,1,.14.66.71.71,0,0,1-.58.54,4.55,4.55,0,0,1-1.81-.12,2.89,2.89,0,0,1-2.25-2.69,1.34,1.34,0,0,1,.42-1,.94.94,0,0,1,.59-.24,1.62,1.62,0,0,1,.52.08,7.17,7.17,0,0,1,1.56.73,7.32,7.32,0,0,1,1.34,1.07,1.45,1.45,0,0,1,.3.41.68.68,0,0,1,0,.68.72.72,0,0,1-.57.33,1.52,1.52,0,0,1-.49,0,7.63,7.63,0,0,1-1.62-.51A3.94,3.94,0,0,1,10,15.35a1.55,1.55,0,0,1-.41-.85,1.12,1.12,0,0,1,.08-.5.5.5,0,0,1,.52-.3,5.48,5.48,0,0,1,1.58.66A7.75,7.75,0,0,1,14.2,16.6l.05.07h-.08l-.37.06v-.07l.36-.08,0,.07a7.5,7.5,0,0,0-2.48-2,6.75,6.75,0,0,0-1.46-.55c-.1,0-.11,0-.14.09a.59.59,0,0,0,0,.3,1.08,1.08,0,0,0,.32.59,3.46,3.46,0,0,0,1.32.77,8,8,0,0,0,1.52.42c.24.06.48,0,.45,0s0-.19-.23-.35a6,6,0,0,0-1.24-.95,6.21,6.21,0,0,0-1.42-.63c-.24-.07-.36,0-.44,0a.69.69,0,0,0-.16.49,2.2,2.2,0,0,0,1.72,1.95,4,4,0,0,0,1.45.11c.09,0,0,0,0,0s0,0-.05-.11a4.85,4.85,0,0,0-.47-.59,5.42,5.42,0,0,0-2.6-1.55l.45-.47a5.7,5.7,0,0,0,.57,1.29,2.85,2.85,0,0,0,.84,1,3.46,3.46,0,0,0,1.31.21,7.5,7.5,0,0,0,1.42-.13l-.21.48A4.82,4.82,0,0,0,13,15.33a4.41,4.41,0,0,0-1.05-.5,2.19,2.19,0,0,0-1-.16c-.11,0-.12.07-.12.15a.76.76,0,0,0,.23.38,5.34,5.34,0,0,0,.89.76,2.32,2.32,0,0,0,2.12.32c.06,0,.09-.07.07,0s0,0-.07,0l-.43-.43a11.3,11.3,0,0,0-.93-.78,11.26,11.26,0,0,0-1-.69c-.31-.19-.83-.48-.85-.39s0,.22,0,.39a1.57,1.57,0,0,0,.19.51,2.16,2.16,0,0,0,.78.81,6,6,0,0,0,2.29.65l-.18.3A5,5,0,0,0,12,15.18a16,16,0,0,0-2.26-.82l.19-.18a2.2,2.2,0,0,0,1.24,1.49,6.73,6.73,0,0,0,2,.56l-.11.18a6.22,6.22,0,0,0-2.56-1.88l.11-.06a1.26,1.26,0,0,0,.66,1.29,3.91,3.91,0,0,0,1.56.4l0,.1A5.69,5.69,0,0,0,11,15.13l.06,0a.73.73,0,0,0,.11.43Z"/><path d="M9.09,16.31A2.69,2.69,0,0,1,7.7,14v-.14l.12.06a5.66,5.66,0,0,1,2.68,2.74l.16.38-.37-.19a5.4,5.4,0,0,1-1.6-1.18,2,2,0,0,1-.58-2,.63.63,0,0,1,.51-.44,1,1,0,0,1,.59.17,4.14,4.14,0,0,1,.8.65,3.81,3.81,0,0,1,.91,1.84l.05.26-.27,0a3.11,3.11,0,0,1-2.16-.86,1.92,1.92,0,0,1-.78-1,1.22,1.22,0,0,1,.45-1.28,1.5,1.5,0,0,1,1.29-.3,2.39,2.39,0,0,1,1.11.59,3.11,3.11,0,0,1,1,2.2v.51L11.09,16a6.12,6.12,0,0,1-2.82-1.76A1.35,1.35,0,0,1,8,13.75a.86.86,0,0,1,0-.65.73.73,0,0,1,.57-.47,1.43,1.43,0,0,1,.52,0,2.57,2.57,0,0,1,1.47,1,5.75,5.75,0,0,1,.77,1.47.6.6,0,0,1,0,.64.81.81,0,0,1-.51.24,2.48,2.48,0,0,1-.86,0,2.58,2.58,0,0,1-1.44-.84A2.07,2.07,0,0,1,8,14.42a.63.63,0,0,1,.22-.77l0,.07c-.21.13-.18.43-.09.65a2,2,0,0,0,.45.59,2.55,2.55,0,0,0,1.32.61,1.83,1.83,0,0,0,.7,0,.34.34,0,0,0,.2-.08s0,0-.06-.11a6.54,6.54,0,0,0-.76-1.29,1.94,1.94,0,0,0-1.12-.7.8.8,0,0,0-.26,0s0,0,0,0,0,.16.16.34a6,6,0,0,0,2.48,1.54l-.49.36a2.4,2.4,0,0,0-.69-1.69,1.18,1.18,0,0,0-1.53-.31.62.62,0,0,0-.27.64,1.52,1.52,0,0,0,.56.69,2.66,2.66,0,0,0,1.75.79l-.23.3a3.19,3.19,0,0,0-.75-1.61c-.35-.4-1.07-1-1.17-.53A1.63,1.63,0,0,0,9,15.44a5.17,5.17,0,0,0,1.47,1.15l-.21.19a5.39,5.39,0,0,0-2.47-2.71L7.87,14a2.57,2.57,0,0,0,1.26,2.25Z"/><path d="M27.5,15.23l2-.19.44,0-.41.17a7.77,7.77,0,0,1-4.29.55l-.75-.11.75-.16L27.46,15l1.13-.23a1.39,1.39,0,0,1,.64,0,.63.63,0,0,1,.51.58.71.71,0,0,1-.44.62,1.86,1.86,0,0,1-.61.19c-.38.05-.77.1-1.15.13a16.34,16.34,0,0,1-2.32,0l-.27,0L25,16a.92.92,0,0,1,.59-.69,4.43,4.43,0,0,1,.69-.21c.44-.12.88-.22,1.33-.31s.9-.17,1.36-.22l.68-.08a2.19,2.19,0,0,1,.4,0,.57.57,0,0,1,.36.17.56.56,0,0,1,.14.4,1,1,0,0,1-.59.79,3.44,3.44,0,0,1-.71.26c-.44.13-.89.23-1.34.32a14.22,14.22,0,0,1-2.76.23h-.33l0-.32a1,1,0,0,1,.36-.88,2.08,2.08,0,0,1,.61-.39A5.55,5.55,0,0,1,27,14.62a6.24,6.24,0,0,1,1.3-.14,1.5,1.5,0,0,1,.75.21.78.78,0,0,1,.33.36.66.66,0,0,1,0,.55,1.27,1.27,0,0,1-.59.52,6.11,6.11,0,0,1-.58.27,6.59,6.59,0,0,1-1.22.37,6.24,6.24,0,0,1-2.51,0l-.15,0,.08-.11a1.29,1.29,0,0,1,.88-.5v.07a1.14,1.14,0,0,0-.73.53l-.06-.14a6.82,6.82,0,0,0,2.38-.23,6.12,6.12,0,0,0,1.1-.43,5.29,5.29,0,0,0,.52-.29c.17-.1.31-.21.32-.27s0,0-.09-.12a1,1,0,0,0-.43-.09,4.91,4.91,0,0,0-1.14.17,5,5,0,0,0-1.08.4c-.35.14-.59.42-.54.47l-.38-.33a16.55,16.55,0,0,0,2.63-.2q.64-.11,1.29-.27a2.3,2.3,0,0,0,.56-.18.63.63,0,0,0,.25-.21s.11.15.09.12a1.36,1.36,0,0,0-.27,0l-.66.05q-.66.06-1.32.18c-.44.07-.87.16-1.3.27s-.9.24-.9.42l-.24-.29a16.72,16.72,0,0,0,2.24.06c.37,0,.75-.05,1.12-.1s.71-.2.69-.36-.34-.28-.68-.22l-1.11.2-2.25.39v-.27A7.61,7.61,0,0,0,29.47,15l0,.14-2,.13Z"/><path d="M38.07,14.88a1,1,0,0,1-.79-.16l0,0,0,0a3.36,3.36,0,0,1,2.06-1,9.08,9.08,0,0,1,1.16-.1,1,1,0,0,1,.6.18.48.48,0,0,1,.13.64.75.75,0,0,1-.59.26,5.49,5.49,0,0,1-.58,0,11,11,0,0,1-1.15,0,11,11,0,0,1-2.28-.46l-.14,0,0-.15a.68.68,0,0,1,.52-.46,4.28,4.28,0,0,1,.57-.1,10.86,10.86,0,0,1,1.14,0,8.49,8.49,0,0,1,1.12.11,1,1,0,0,1,.64.24.47.47,0,0,1,.08.48.75.75,0,0,1-.26.29,3.36,3.36,0,0,1-1.15.35,7.32,7.32,0,0,1-1.15.06,6.12,6.12,0,0,1-2.23-.53l-.5-.23.5-.23a7.21,7.21,0,0,1,4-.59l.41.05-.21.37a2.29,2.29,0,0,1-.92.88,5.41,5.41,0,0,1-1.11.43,4.19,4.19,0,0,1-1.19.23,1.28,1.28,0,0,1-1.22-.74l-.07-.17.11-.16a2.78,2.78,0,0,1,2.09-1,6.8,6.8,0,0,1,1.11,0,1.75,1.75,0,0,1,.63.17A1,1,0,0,1,40,14a1.12,1.12,0,0,1-.72,1.26,3.37,3.37,0,0,1-1.15.22,6.31,6.31,0,0,1-2.2-.27l-.28-.08,0-.3a1,1,0,0,1,.42-.72,2,2,0,0,1,.57-.29,7.42,7.42,0,0,1,1.08-.33,8.19,8.19,0,0,1,1.12-.2,1.41,1.41,0,0,1,1.27.43l.14.16-.12.19a1.65,1.65,0,0,1-1,.65,4.57,4.57,0,0,1-1,.15,5.17,5.17,0,0,1-2-.33l-.11,0,0-.1a.56.56,0,0,1,.3-.59,1.9,1.9,0,0,1,.5-.18,5,5,0,0,1,1-.11,5.59,5.59,0,0,1,1.87.23h0v0a.3.3,0,0,1-.28.34v-.08a.19.19,0,0,0,.17-.24l0,0a5.94,5.94,0,0,0-1.83-.07,6.24,6.24,0,0,0-.88.19c-.29.05-.56.26-.49.32l-.14-.15a4.55,4.55,0,0,0,1.83.19c.59-.06,1.26-.2,1.48-.59l0,.34a.87.87,0,0,0-.73-.15,7.57,7.57,0,0,0-1,.21c-.33.1-.66.21-1,.34s-.54.32-.51.39l-.27-.39a5.49,5.49,0,0,0,1.93.22,3.55,3.55,0,0,0,.89-.16c.22-.08.32-.28.29-.36S39,14,38.72,14a6.24,6.24,0,0,0-1,0,2.12,2.12,0,0,0-1.6.67l0-.33a.65.65,0,0,0,.61.34,3.92,3.92,0,0,0,1-.18,2.63,2.63,0,0,0,1.7-1l.21.43a6.62,6.62,0,0,0-3.7.48v-.46a5.76,5.76,0,0,0,3.11.49,2.86,2.86,0,0,0,1-.25c.13-.1.13-.13.11-.16s-.21-.09-.39-.12a9.91,9.91,0,0,0-1.08-.12,9.73,9.73,0,0,0-1.08,0c-.36,0-.76.08-.82.29l-.11-.2a9.75,9.75,0,0,0,2.2.5,8.57,8.57,0,0,0,1.13.07c.36,0,.82.05,1-.17a.3.3,0,0,0-.09-.38.8.8,0,0,0-.48-.14,8.68,8.68,0,0,0-1.13.07,3.21,3.21,0,0,0-2,.9v-.07a.92.92,0,0,0,.72.16Z"/><path d="M50.79,12.59a1.57,1.57,0,0,1,.42-1.14l.07-.07,0,.1a1.58,1.58,0,0,1-.79,2.13.6.6,0,0,1-.4,0,.55.55,0,0,1-.28-.32,1.42,1.42,0,0,1,0-.68,1.68,1.68,0,0,1,.79-1l.14-.08.12.13a1.16,1.16,0,0,1-.76,1.91.71.71,0,0,1-.61-.19.74.74,0,0,1-.11-.61,3.34,3.34,0,0,1,.47-1.24,3.09,3.09,0,0,1,.26-.37,1.25,1.25,0,0,1,.2-.19.54.54,0,0,1,.54-.06.63.63,0,0,1,.28.34,1.13,1.13,0,0,1,.08.24,2.43,2.43,0,0,1,.08.47,2.35,2.35,0,0,1-.15.94,1.05,1.05,0,0,1-.36.52.56.56,0,0,1-.64,0A.68.68,0,0,1,50,13a3.17,3.17,0,0,1-.1-.92,2.69,2.69,0,0,1,.21-.89,1.1,1.1,0,0,1,.33-.49.62.62,0,0,1,.75,0,1.6,1.6,0,0,1,.48.86,1.79,1.79,0,0,1,0,.92,1,1,0,0,1-1.46.6l0-.06a.77.77,0,0,0,1-.63,1.32,1.32,0,0,0-.11-.67,1.29,1.29,0,0,0-.33-.52c-.07,0,0,0,0,0a.76.76,0,0,0-.08.2,2.61,2.61,0,0,0-.11.68,2.24,2.24,0,0,0,.1.68s0,0,0,0a.25.25,0,0,0-.27,0s0,0,.08-.15a1.86,1.86,0,0,0,.13-.63,1.84,1.84,0,0,0,0-.33c0-.11-.11-.24,0-.13s.17,0,.15,0l-.09.08a3.11,3.11,0,0,0-.23.28,2.43,2.43,0,0,0-.33.64,3.57,3.57,0,0,0-.1.35c0,.12,0,.2,0,.16a.34.34,0,0,0,.15,0,.64.64,0,0,0,.27-.07.68.68,0,0,0,.21-1l.26.05a1.28,1.28,0,0,0-.62.76.9.9,0,0,0,0,.48c0,.13.1.16.26.12a1.24,1.24,0,0,0,.73-.71,1.42,1.42,0,0,0,0-1.07l.12,0a1.4,1.4,0,0,0-.45,1Z"/><path d="M35.14,15.81a13.1,13.1,0,0,1-5.27.7l-.27,0,.25-.11A16.24,16.24,0,0,1,35.72,15h.13l0,.12a.55.55,0,0,1-.41.39,4.63,4.63,0,0,1-.49.09l-1,.14-1.91.29-3.81.57-1.17.18,1.1-.46a18.63,18.63,0,0,1,6.15-1.42h.1l.06.08a.48.48,0,0,1,.06.4.71.71,0,0,1-.18.28,1.24,1.24,0,0,1-.47.31c-.31.14-.62.28-.94.39a14.93,14.93,0,0,1-1.95.56A14.13,14.13,0,0,1,27,17.2h-.14L26.77,17a.55.55,0,0,1,.19-.56,1.52,1.52,0,0,1,.4-.24l.76-.23c.5-.14,1-.25,1.53-.34a14.92,14.92,0,0,1,3.13-.18l.82,0-.71.42a13.73,13.73,0,0,1-3.79,1.54,15.64,15.64,0,0,1-2,.34,4.41,4.41,0,0,1-1.09,0,.88.88,0,0,1-.73-1.09l.05-.16.16,0,4.46-.62,2.64-.37L30,16.52a15.06,15.06,0,0,1-5.64,1l-1.08,0,.91-.59a3.72,3.72,0,0,1,1.92-.52,11.64,11.64,0,0,1,1.89.18l1.13.19-1,.48a5.72,5.72,0,0,1-4.82,0l-1.26-.6,1.4-.1A25.14,25.14,0,0,0,26.68,16l1.54-.34-1.23,1a4.5,4.5,0,0,1-4.76.51l-.6-.3.57-.35a6.06,6.06,0,0,1,3.71-.9l.7.06-.43.54a3.67,3.67,0,0,1-3.85,1.24l-.53-.15.37-.4A5,5,0,0,1,24,15.65a5.84,5.84,0,0,1,1.09-.29,1.47,1.47,0,0,1,.32,0,.59.59,0,0,1,.46.22.57.57,0,0,1,.06.54,1.11,1.11,0,0,1-.21.32,5.82,5.82,0,0,1-2,1,6.67,6.67,0,0,1-2.18.19l-.7-.06.57-.4a6.82,6.82,0,0,1,4.55-1.18,1.26,1.26,0,0,1,1.16.59A.45.45,0,0,1,27,17a.72.72,0,0,1-.35.19l-.58.11-2.28.41-.06-.27,4.68-1.33,0,.07-4.62,1.52-.07-.26,2.26-.5.56-.12c.18,0,.2-.1.18-.15a.65.65,0,0,0-.32-.24,2.47,2.47,0,0,0-.52-.08,6.41,6.41,0,0,0-4.22,1.19l-.12-.45a6.06,6.06,0,0,0,2-.22A5.49,5.49,0,0,0,25.3,16c.1-.09.07-.21.1-.08s0,0-.21,0a4.39,4.39,0,0,0-.94.27,4.25,4.25,0,0,0-1.58,1.13l-.16-.55a3,3,0,0,0,3.07-1.05l.27.61a5.36,5.36,0,0,0-3.26.79l0-.66a3.78,3.78,0,0,0,4-.42l.31.65a25.13,25.13,0,0,1-3.34.49l.13-.71a5.09,5.09,0,0,0,4.2,0l.09.67a4.81,4.81,0,0,0-3.33.2l-.17-.61A14.48,14.48,0,0,0,29.83,16l.13.58-4.4.57.21-.18c0,.09.09.32.33.36a3.57,3.57,0,0,0,.92,0A12.75,12.75,0,0,0,29,17a13.1,13.1,0,0,0,3.67-1.46l.12.46a14.63,14.63,0,0,0-3,.15,12.75,12.75,0,0,0-1.49.32l-.72.21c-.21.07-.37.24-.33.27L27,16.77a13.94,13.94,0,0,0,3.92-.22,13.71,13.71,0,0,0,1.9-.53c.32-.11.62-.24.92-.37s.54-.38.45-.44l.16.08a18.29,18.29,0,0,0-6.06,1.32l-.08-.28L32,15.8l1.9-.27,1-.13c.3,0,.68-.07.73-.29l.1.12a15.82,15.82,0,0,0-5.82,1.28l0-.13a13.09,13.09,0,0,0,5.23-.64Z"/><path d="M35.53,15.7a3.67,3.67,0,0,0,2.22-1.07l.2.4c-.78.21-1.55.46-2.33.68a8.21,8.21,0,0,1-1.21.18c-.41,0-.82,0-1.21.06l0-.06a3.19,3.19,0,0,1,1.12-.59A7.88,7.88,0,0,1,35.45,15c.8-.13,1.6-.24,2.4-.38l.88-.15-.67.55a3.7,3.7,0,0,1-2.53.81Z"/><path d="M7.42,12.3C5.72,12.88,4,13.43,2.32,14c-.78.34-1.6.85-1.78,1.6s.5,1.46,1,2.22a17.29,17.29,0,0,0,3.4,4,10.42,10.42,0,0,0,4.77,2A57.11,57.11,0,0,0,20.3,25.47a19,19,0,0,0,5.31-.65c1.73-.46,3.39-1.16,5.19-1.53a13.89,13.89,0,0,1,5.45.05c1.79.32,3.53.8,5.28,1.12a28.61,28.61,0,0,0,5.3.46,16.1,16.1,0,0,0,2.62-.17,5.67,5.67,0,0,0,2.33-.95,13.87,13.87,0,0,0,2-1.72c.63-.63,1.26-1.27,1.84-1.94a8.83,8.83,0,0,0,2.33-4.57,3.73,3.73,0,0,0-.44-2.42,3.48,3.48,0,0,0-2.07-1.38,25.38,25.38,0,0,0-5.31-.66V11q1.35,0,2.7,0a12.47,12.47,0,0,1,2.71.33,4,4,0,0,1,2.38,1.48,4.25,4.25,0,0,1,.62,2.75,9.54,9.54,0,0,1-2.37,5c-.58.71-1.22,1.36-1.85,2a15.33,15.33,0,0,1-2.09,1.82,6.47,6.47,0,0,1-2.62,1.09,15.18,15.18,0,0,1-2.76.18,30,30,0,0,1-5.43-.56c-1.79-.34-3.51-.88-5.26-1.25a13.57,13.57,0,0,0-5.27-.21c-1.75.31-3.45.93-5.2,1.39a22.61,22.61,0,0,1-5.37.65A64.65,64.65,0,0,1,9.54,24.55a10.55,10.55,0,0,1-5.06-2.14A18,18,0,0,1,1,18.18C.77,17.79.52,17.43.29,17a2,2,0,0,1-.23-1.49,2.32,2.32,0,0,1,.88-1.19,5.41,5.41,0,0,1,1.23-.66c1.75-.57,3.49-.95,5.23-1.44Z"/><path d="M38.89,24.15a24.27,24.27,0,0,0-2.62.5l-2.55.73c-.86.24-1.74.45-2.6.73s-1.68.63-2.53.95a11.33,11.33,0,0,1-5.42.81,9.35,9.35,0,0,1-5-2.21l0-.07a14.06,14.06,0,0,0,5,1.48,15.89,15.89,0,0,0,5.21-.4A15.27,15.27,0,0,0,31,25.88c.83-.33,1.64-.75,2.48-1.09a10.6,10.6,0,0,1,5.37-.72Z"/><path d="M5.27,17.9a1.81,1.81,0,0,0,.12,2,2.78,2.78,0,0,0,.76.52,3.5,3.5,0,0,0,1,.41l0,.08a1.4,1.4,0,0,1-1.27.21,1.69,1.69,0,0,1-1-.9,2,2,0,0,1,.33-2.34Z"/><path d="M47.11,23.34A7.89,7.89,0,0,0,50,22.49c.44-.24.83-.55,1.26-.8l.65-.38.31-.18c.08-.07.17-.12.14-.23l0-.06c.2.07.15.35.1.48a1.82,1.82,0,0,1-.24.37,4.05,4.05,0,0,1-.56.61,4.48,4.48,0,0,1-1.46.74,6.88,6.88,0,0,1-3.17.37Z"/><path d="M44.11,22.5a10.43,10.43,0,0,0,2.51-.24c.4-.09.78-.26,1.19-.32a7.35,7.35,0,0,1,1.29-.12l0,.07a2.75,2.75,0,0,1-1.12.77,3.86,3.86,0,0,1-1.31.2,7.79,7.79,0,0,1-2.6-.29Z"/></g></g></g></svg>