<svg xmlns="http://www.w3.org/2000/svg" viewBox="0 0 1186.05 347.52" fill="#f5f5f5"><g id="Layer_2" data-name="Layer 2"><g id="Layer_1-2" data-name="Layer 1"><path d="M101,86.28H0L50.44,0Z"/><path d="M302.77,86.28H201.89L252.33,0Z"/><path d="M201.89,86.28H101l50.43,86.28Z"/><path d="M504.66,86.28H403.72L454.23,0Z"/><path d="M403.71,86.28H302.77l50.5,86.28Z"/><path d="M706.48,86.28H605.61L656.05,0Z"/><path d="M605.61,86.28H504.66l50.43,86.28Z"/><path d="M807.43,86.28H706.48L757,172.56Z"/><path d="M478.86,212.11l50.78,133.24H494.27l-9.55-25.82H436.33L427,345.35H392.5l50.77-133.24ZM447,290.88H474.3l-13.67-37.54Z"/><path d="M658.75,345.35H630.54l-55.77-77.9v77.9H541.14V212.11h32.55l51.43,73.35V212.11h33.63Z"/><path d="M756.62,212.11l50.77,133.24H772l-9.54-25.82H714.09l-9.34,25.82h-34.5L721,212.11Zm-31.9,78.77h27.34l-13.67-37.54Z"/><path d="M818.9,212.11h34.93V315.19h59.68v30.16H818.9Z"/><path d="M984.68,347.52c-38.41,0-64.88-29.08-64.88-68.79,0-39.92,26.47-68.79,64.88-68.79,38.63,0,65.32,28.87,65.32,68.79C1050,318.44,1023.31,347.52,984.68,347.52Zm0-107c-18,0-29.73,15.19-29.73,38.19s11.72,38.19,29.73,38.19,30.17-15.19,30.17-38.19S1002.69,240.54,984.68,240.54Z"/><path d="M1130.94,300.21v-26h55.11v13.23c0,36.89-24.3,60.11-59.67,60.11-38.63,0-66-28.21-66-68.79s27.34-68.79,65.54-68.79c34.28,0,54,19.75,59,46.88h-35.59c-3.69-10.2-10.85-16.28-23.43-16.28-19.32,0-30.38,16.06-30.38,38.19,0,22.79,11.71,38.19,30.81,38.19,13.24,0,21.92-6.51,25.17-16.71Z"/></g></g></svg>