<svg xmlns="http://www.w3.org/2000/svg" viewBox="0 0 158.26 49.18"><defs><style>.cls-1{fill:#fff;}</style></defs><g id="Lag_2" data-name="Lag 2"><g id="Lag_2-2" data-name="Lag 2"><polygon class="cls-1" points="13.67 11.77 0 11.77 6.83 0 13.67 11.77"/><polygon class="cls-1" points="41 11.77 27.34 11.77 34.17 0 41 11.77"/><polygon class="cls-1" points="27.34 11.77 13.67 11.77 20.5 23.54 27.34 11.77"/><polygon class="cls-1" points="68.34 11.77 54.67 11.77 61.51 0 68.34 11.77"/><polygon class="cls-1" points="54.67 11.77 41 11.77 47.84 23.54 54.67 11.77"/><polygon class="cls-1" points="95.67 11.77 82.01 11.77 88.84 0 95.67 11.77"/><polygon class="cls-1" points="82.01 11.77 68.34 11.77 75.17 23.54 82.01 11.77"/><polygon class="cls-1" points="109.34 11.77 95.67 11.77 102.51 23.54 109.34 11.77"/><path class="cls-1" d="M59.43,42.71l-2,6.15H54.79l6.64-19.55h3.05l6.67,19.55h-2.7l-2.09-6.15Zm6.41-2-1.91-5.63c-.44-1.27-.73-2.43-1-3.57h-.06c-.29,1.16-.61,2.35-1,3.54L60,40.74Z"/><path class="cls-1" d="M74,48.86V29.31h2.75L83,39.2a55.65,55.65,0,0,1,3.51,6.35l.06,0c-.24-2.61-.29-5-.29-8V29.31h2.37V48.86H86.14l-6.21-9.92a62.5,62.5,0,0,1-3.65-6.53l-.09,0c.15,2.47.21,4.82.21,8.07v8.35Z"/><path class="cls-1" d="M96.26,42.71l-2,6.15H91.62l6.64-19.55h3L108,48.86h-2.7l-2.09-6.15Zm6.41-2-1.91-5.63c-.44-1.27-.73-2.43-1-3.57h-.06c-.29,1.16-.61,2.35-1,3.54l-1.92,5.66Z"/><path class="cls-1" d="M110.85,29.31h2.52V46.74h8.35v2.12H110.85Z"/><path class="cls-1" d="M140.11,38.88c0,6.73-4.09,10.3-9.08,10.3-5.16,0-8.79-4-8.79-9.92,0-6.21,3.86-10.27,9.08-10.27S140.11,33.08,140.11,38.88Zm-15.17.32c0,4.18,2.26,7.92,6.24,7.92s6.26-3.68,6.26-8.12c0-3.89-2-7.95-6.23-7.95S124.94,34.91,124.94,39.2Z"/><path class="cls-1" d="M158.26,48a18.09,18.09,0,0,1-6,1.07A10,10,0,0,1,145,46.48a10.05,10.05,0,0,1-2.73-7.28c0-5.83,4-10.09,10.59-10.09a12,12,0,0,1,4.87.9l-.61,2.06a10,10,0,0,0-4.32-.84c-4.75,0-7.86,2.95-7.86,7.86s3,7.89,7.54,7.89a8.2,8.2,0,0,0,3.37-.53V40.62h-4v-2h6.44Z"/></g></g></svg>