<svg xmlns="http://www.w3.org/2000/svg" viewBox="0 0 58.64 41.78" fill="#f5f5f5"><g id="Layer_2" data-name="Layer 2"><g id="Layer_2-2" data-name="Layer 2"><g id="Varme_drikke" data-name="Varme drikke"><path d="M19.15,15.62c-1.39,0-2.88-.22-4.13.55-.76.47-1.84,1.26-1.76,2.22a.82.82,0,0,0,.64.49,34.11,34.11,0,0,0,4.2.09c4.28.05,8.47,1.3,12.74,1.15a72.87,72.87,0,0,0,8.41-1.35,23.79,23.79,0,0,0,4.08-1,1.63,1.63,0,0,0,.39-2.91A5.64,5.64,0,0,0,40,13.82c-4.12-.13-8.69-.35-12.77-.58-2.92-.4-5,2.44-8,2.38Zm0-.08c2.25,0,3.88-1.64,5.86-2.42,3.5-.84,7.17-.2,10.71-.23L40,13a6.34,6.34,0,0,1,4.23,1.33c2.33,2.55-.13,4.29-2.78,4.47-3.5.53-7,1.17-10.58,1.53a57.9,57.9,0,0,1-8.54-.43c-1.41-.16-2.82-.25-4.23-.32a23.6,23.6,0,0,1-4.31-.29,1.25,1.25,0,0,1-.9-.84,1.42,1.42,0,0,1,.35-1.14c1.4-1.89,3.8-2,5.93-1.81Z"/><path d="M44.82,22.05c-.43,1.87-.69,3.85-1.79,5.5a14,14,0,0,1-4.18,4c-.73.5-1.56,1.31-2.33,1.75-4.6,2.4-15.37,4-19.88,1.12a8.64,8.64,0,0,1-3.45-4.62c-.23-1-.31-1.93-.5-2.86-1-3.13-1.87-6.93.43-9.76a.38.38,0,0,1,.35-.14s.26.12.26.3a1,1,0,0,1,0,.18,1.28,1.28,0,0,0-.08,1.13c.47.57,1.66.71,2.41.93a12.11,12.11,0,0,0,2.78.44c2.8.09,5.89.29,8.66.28a88.64,88.64,0,0,0,11.46-1.16A10.79,10.79,0,0,0,44.2,17.1c.26-.08.55-.3.78,0a14.31,14.31,0,0,1,.33,3.64,2,2,0,0,1-.49,1.33Zm-.08,0c.67-.77.45-1.83.41-2.77a14.56,14.56,0,0,0-.31-2.1c-.06-.11-.36,0-.55.12A11.2,11.2,0,0,1,39,19.66a64.59,64.59,0,0,1-11.54,1.45c-3.07,0-6.36-.21-9.42-.36a23.23,23.23,0,0,1-3.62-.85A2.43,2.43,0,0,1,13,19a1.88,1.88,0,0,1,.07-1.65h0v.05a.29.29,0,0,0,.44.23,3.8,3.8,0,0,0-.29.38C11.4,20.72,12.17,24,13,26.91c.17,1,.22,1.93.45,2.85a7.9,7.9,0,0,0,3.34,4.47c1.54,1.18,3.59,1.14,5.47,1.25a36.67,36.67,0,0,0,8.55-.93,23.07,23.07,0,0,0,5.41-1.73c1.53-1,3.2-2.2,4.73-3.26,2.38-1.81,3.25-4.7,3.79-7.52Z"/><path d="M12.9,28c-3.84.7-8,1.62-10.84,4.45C.78,33.76-.09,36,1.4,37.41S4.91,38.9,6.83,39.2a29.76,29.76,0,0,0,6,.23c6-.52,12-2,18-1.09,4,.41,8,1,12,.71,2-.27,3.95-.49,5.94-.83a51.43,51.43,0,0,0,5.87-1c1.75-.5,3.44-2,3.34-3.89-.38-4.55-12.44-4.54-16-4.39a32.69,32.69,0,0,1,12,.53,8.84,8.84,0,0,1,2.89,1.13c3.48,2.2,1.31,6.5-2,7.36a99,99,0,0,1-12,1.84c-6.12.42-12-1.52-18-1.42s-11.94,2.32-18,1.49c-2-.31-4.23-.45-5.82-2-1.74-1.65-.81-4.35.7-5.78,3-2.83,7.46-3.84,11.26-4.06Z"/><path d="M44.88,18.47c.45-2.67,4.26-3.23,5.94-1.34a2.28,2.28,0,0,1,.44,1.41,17.32,17.32,0,0,1,.1,2.8c0,2.06-2.1,3.21-3.64,4.17a19.76,19.76,0,0,1-5.08,2.27c1.6-1.05,5.43-3.39,7-4.41s1.67-3.1,1.43-4.81a1.64,1.64,0,0,0-.5-1.14,4.46,4.46,0,0,0-3.64-.59A3.21,3.21,0,0,0,45,18.49l-.07,0Z"/><path d="M45.24,20.75a.89.89,0,0,1,.43-1.15c1.8-.83,3,2.17,1.86,3.34a4.66,4.66,0,0,1-3.24,1c.13-.4,1.5-.91,1.91-1.12,1.35-.34,2.23-2.2.52-2.66-.54-.18-1.17-.2-1.41.52l-.07,0Z"/><path d="M23.39,10.87c-2.46,1.09-2.6-.7-1.68-2.52a29.26,29.26,0,0,0,.91-4A2.71,2.71,0,0,0,22.07,2l0-.06c1,.27,1.4,1.57,1.31,2.53-.11,1.51-1.07,2.62-1.47,4a7.42,7.42,0,0,0-.09,1.93c0,.15.06.2.21.26a5.74,5.74,0,0,0,1.31.19l0,.07Z"/><path d="M29.05,7.83c.14-.56.19-1,.31-1.45a1.67,1.67,0,0,0,0-1.51,3.1,3.1,0,0,1,0-3.17l.07,0,.29,1.51a21,21,0,0,1,0,2.39,1.72,1.72,0,0,1-.7,2.26l-.06,0Z"/><path d="M33.87,9.05a23.74,23.74,0,0,0,2.3-3c.13-.22.22-.38,0-.54-.84-.83-2.23-.34-3-1.27-1-1.71.73-3.4,2-4.26l0,.05a14.17,14.17,0,0,0-1.4,2.65c-.38,1.13,0,1.43,1.09,1.84.5.33,1.52.6,1.64,1.24,0,1.33-1.5,3.16-2.75,3.27Z"/><path d="M14.27,32.51a3.63,3.63,0,0,0-1.5,1.83c-1.64,4.08,8,2,10,2,4.94-.69,10,0,14.92-.19,1.6-.11,3.72-.46,4.37-2.09a9.74,9.74,0,0,0-3.33-2.32,8.55,8.55,0,0,1,3.4,1.61,1,1,0,0,1,.47.66c-.1,1.23-1.32,2-2.31,2.41-5.75,1.7-11.68-.83-17.49.17-3.31.39-6.73,1.78-10,.15a1.54,1.54,0,0,1-.68-1.26,3.39,3.39,0,0,1,2.13-3l0,.06Z"/><path d="M31.8,38.83c-2.21.08-4.28,1.41-6.66,1.63-3.22.74-9,2.95-11-.81A5.36,5.36,0,0,0,18.27,41a34.73,34.73,0,0,0,6.81-.75c2-.54,4.78-2.39,6.72-1.39Z"/><path d="M18.58,31.3a7.27,7.27,0,0,0,4.23,2.12c.5,0,1,.18,1.33-.26h.07c.12.74-.89,1-1.44,1a5.94,5.94,0,0,1-4.19-2.87Z"/><path d="M16.79,31.47a6,6,0,0,0,1.69,1.4l.57.5c-.05.29-.72.25-.92.16a3.56,3.56,0,0,1-1.41-2l.07,0Z"/><path d="M32,33a12.45,12.45,0,0,0,4.18-2.36l.07,0a2,2,0,0,1-.56,1.24A6.51,6.51,0,0,1,32,33.08V33Z"/><path d="M45.85,31.31c1.43-.55,3.54,1.79,2.34,3.05a1.21,1.21,0,0,1-1.57.21l0-.07a1.29,1.29,0,0,0,1.13-1.58,3,3,0,0,0-.71-1.09,1.34,1.34,0,0,0-1.19-.45l0-.07Z"/><path d="M51.23,32.54a1.77,1.77,0,0,1,.2,2.46c-.17.16-.8.42-.94.16A11.74,11.74,0,0,1,51.23,34a1.66,1.66,0,0,0,0-1.39l0-.05Z"/><path d="M5.46,33c0,.5.07,1.32.7,1.15.47-.18,1.17-.52,1.66-.68l.06,0c-.06,1.23-2.25,1.82-2.64.52a1.87,1.87,0,0,1,.14-1Z"/><path d="M16.44,18.62a23.27,23.27,0,0,1,6.12-.43c2.05.1,4.05.69,6.11.5,4.08-.29,8.12-1,12.16-1.64h.09l0,.08a.67.67,0,0,1-.29.78,7.53,7.53,0,0,1-2.19.73,50.44,50.44,0,0,1-9,1.36c-4.16.12-8.5.63-12.47-.92,3.57-1.94,7.67-.56,11.44-.46a50.57,50.57,0,0,0,11-1.35l.09.45c-5.1.73-10.24.14-15.28,1.22a16.15,16.15,0,0,1-5.16.48l.06-.55c6.63.5,13.46.63,19.83-1.49A9,9,0,0,1,40.42,17a1.1,1.1,0,0,1,1.26,1.25l0,.18-.2.05c-8,2.26-16.3,1.74-24.42,1-.57,0-1.45-.69-.86-1.34A5.29,5.29,0,0,1,19,17.48c3.19.07,6.3.45,9.42.48,4.36.24,8.49-1.26,12.81-1.58.65-.09,1.7.44,1.5,1.3s-1.15.9-1.73,1a87.59,87.59,0,0,1-11.78.75H24.51c-1.63,0-3.41.14-5-.71l.24-.16c1.87-1.11,4-.32,6.06-.46,2,.09,4.22-.28,6.07-.31a45.53,45.53,0,0,1-9.11.47A4.61,4.61,0,0,0,20,18.8l0-.28c1.39.64,3,.46,4.57.49,5.7-.11,11.88.1,17.42-1.19.26-.16.3-.36.14-.57-.32-.44-1.22-.23-2-.16-2.34.3-4.59.93-6.94,1.29-4.69.75-9.5,0-14.16-.15a6.87,6.87,0,0,0-2.19.3c-.17.06-.08.08-.1,0s.06.06.2.1c8.07.86,16.46,1.34,24.34-.82L41,18c-.16-.82-1.27-.16-1.87,0-.92.31-1.86.55-2.8.77-5.67,1.29-11.55,1.1-17.29.64l.06-.55c3.34.3,6.73-1.1,10.1-1.07,3.43-.19,6.85-.07,10.21-.54l.09.45A49.89,49.89,0,0,1,28.44,19c-3.63-.08-7.45-1.41-10.9.19v-.33c3.77,1.34,8,.92,11.93.82A49.67,49.67,0,0,0,39.88,18c.37-.1,1-.37.87-.82a77.48,77.48,0,0,1-13.62,1.66c-1.53-.12-3-.48-4.57-.56a31.53,31.53,0,0,0-6.12.32Z"/></g></g></g></svg>