<?xml version="1.0" standalone="no"?>
<!DOCTYPE svg PUBLIC "-//W3C//DTD SVG 20010904//EN"
 "http://www.w3.org/TR/2001/REC-SVG-20010904/DTD/svg10.dtd">
<svg version="1.0" xmlns="http://www.w3.org/2000/svg"
 width="3228.000000pt" height="3228.000000pt" viewBox="0 0 3228.000000 3228.000000"
 preserveAspectRatio="xMidYMid meet">
<metadata>
Created by potrace 1.14, written by Peter Selinger 2001-2017
</metadata>
<g transform="translate(0.000000,3228.000000) scale(0.100000,-0.100000)"
fill="#000000" stroke="none">
<path d="M1965 19503 c-28 -48 -60 -105 -73 -127 -13 -23 -35 -58 -48 -78 -13
-21 -24 -40 -24 -43 0 -3 -11 -24 -26 -46 -14 -22 -34 -57 -46 -77 -11 -20
-89 -154 -173 -297 -83 -143 -165 -284 -181 -312 -16 -29 -32 -53 -36 -53 -5
0 -8 -5 -8 -10 0 -6 -30 -63 -67 -126 -38 -63 -82 -139 -98 -169 -17 -30 -36
-60 -43 -67 -7 -7 -12 -15 -12 -19 0 -4 -49 -90 -110 -192 -60 -103 -119 -205
-132 -228 -13 -23 -28 -49 -33 -58 -6 -9 -23 -38 -39 -66 -16 -27 -46 -77 -66
-110 -20 -33 -40 -67 -44 -75 -4 -8 -12 -24 -19 -35 -7 -11 -34 -58 -62 -105
-27 -47 -54 -93 -60 -102 -5 -9 -17 -29 -26 -45 -17 -29 -51 -88 -136 -233
-27 -47 -56 -96 -64 -110 -8 -14 -16 -27 -19 -30 -3 -3 -13 -21 -24 -40 -46
-87 -70 -125 -78 -128 -4 -2 -8 -8 -8 -13 0 -6 -23 -49 -51 -97 -29 -48 -63
-107 -77 -132 -14 -25 -38 -65 -53 -90 l-28 -45 2020 -5 2020 -5 23 -40 c12
-22 53 -92 91 -155 37 -63 79 -135 93 -160 13 -25 33 -57 43 -72 11 -14 19
-29 19 -32 0 -4 12 -25 27 -49 15 -23 37 -60 48 -82 12 -22 40 -70 63 -108 23
-37 42 -69 42 -71 0 -3 23 -41 50 -85 28 -44 50 -85 50 -90 0 -5 7 -14 15 -21
8 -7 12 -16 9 -21 -3 -5 -1 -9 4 -9 4 0 18 -19 31 -42 12 -24 30 -56 40 -73
10 -16 27 -46 38 -65 41 -72 113 -196 123 -210 5 -8 21 -35 35 -60 14 -25 38
-66 53 -92 37 -63 296 -506 319 -545 10 -17 34 -57 53 -90 19 -32 39 -67 45
-78 6 -11 67 -114 135 -230 68 -115 128 -220 134 -232 6 -13 14 -23 19 -23 4
0 7 -5 7 -11 0 -7 14 -35 32 -63 17 -28 39 -64 48 -81 10 -16 41 -70 69 -118
28 -49 51 -93 51 -98 0 -5 4 -9 8 -9 7 0 32 -43 35 -60 0 -3 13 -23 29 -44 15
-21 28 -43 28 -47 0 -4 13 -28 30 -52 16 -25 30 -48 30 -51 0 -4 11 -23 24
-42 l23 -35 17 33 c9 18 28 51 42 73 13 22 29 49 34 60 10 21 17 32 63 103 15
24 27 45 27 46 0 2 36 65 80 140 44 76 80 141 80 146 0 6 4 10 9 10 5 0 11 8
15 18 3 9 14 31 24 47 22 37 108 183 220 375 47 80 92 156 100 170 9 14 15 27
13 29 -1 2 1 7 6 10 5 3 35 51 66 106 32 55 62 107 67 115 5 8 55 94 111 190
56 96 134 229 173 295 39 66 71 122 71 125 0 3 8 16 17 30 29 44 308 523 308
528 0 3 6 13 14 21 8 9 26 39 40 66 15 28 32 59 39 69 7 11 27 44 45 72 17 29
32 56 32 59 0 3 16 31 35 61 19 30 35 59 35 64 0 6 5 10 10 10 6 0 10 6 10 13
0 7 11 28 23 47 13 19 35 55 49 80 57 103 72 128 106 183 l35 57 2013 0 c1108
0 2014 2 2014 5 0 3 -35 65 -79 138 -43 73 -107 181 -142 242 -35 60 -69 119
-76 130 -7 11 -15 27 -19 35 -5 8 -23 38 -41 67 -18 29 -33 57 -33 63 0 5 -5
10 -12 10 -6 0 -8 3 -5 7 4 3 1 13 -6 22 -8 9 -25 36 -38 61 -13 25 -27 47
-30 50 -3 3 -23 36 -45 74 -66 117 -96 170 -160 278 -33 57 -67 114 -75 128
-8 14 -16 27 -19 30 -3 3 -13 21 -23 40 -34 63 -52 95 -58 100 -3 3 -16 25
-30 50 -13 25 -26 47 -29 50 -3 3 -14 23 -25 45 -11 22 -24 45 -28 50 -16 20
-77 128 -77 135 0 5 -3 10 -7 12 -5 2 -19 23 -32 48 -13 25 -36 63 -50 85 -14
22 -26 42 -26 45 0 3 -8 17 -18 33 -39 63 -51 82 -51 87 1 3 -19 35 -43 73
-24 37 -43 69 -43 72 0 2 -25 45 -55 96 -30 50 -55 93 -55 95 0 3 -11 21 -23
42 -13 20 -32 51 -43 67 -10 17 -19 32 -19 35 -1 5 -47 84 -100 170 -19 30
-34 61 -35 68 0 6 -4 12 -10 12 -5 0 -10 7 -10 15 0 8 -4 15 -10 15 -5 0 -10
4 -10 10 0 5 -27 55 -60 111 -33 55 -60 103 -60 105 0 2 -18 32 -40 66 -22 35
-40 69 -40 76 0 6 -4 12 -10 12 -5 0 -10 7 -10 15 0 8 -5 15 -11 15 -5 0 -8 4
-4 9 3 5 1 12 -4 15 -5 4 -26 36 -46 72 l-37 65 -43 -73 c-23 -40 -55 -93 -69
-118 -15 -25 -29 -53 -33 -62 -3 -10 -9 -18 -14 -18 -5 0 -9 -4 -9 -9 0 -5
-28 -56 -61 -113 -34 -57 -75 -128 -92 -158 -16 -30 -38 -66 -47 -80 -10 -14
-26 -41 -37 -60 -48 -88 -116 -200 -124 -206 -5 -3 -7 -10 -4 -15 4 -5 2 -9
-4 -9 -5 0 -15 -16 -22 -35 -7 -19 -17 -35 -21 -35 -4 0 -8 -4 -8 -10 0 -5
-15 -33 -32 -62 -54 -87 -68 -112 -74 -130 -4 -10 -10 -18 -15 -18 -5 0 -9 -4
-9 -10 0 -5 -19 -42 -43 -82 -24 -40 -46 -80 -50 -88 -4 -8 -25 -44 -47 -79
-22 -34 -40 -67 -40 -72 0 -5 -4 -9 -10 -9 -5 0 -10 -5 -10 -11 0 -13 -80
-151 -93 -160 -5 -3 -9 -10 -9 -15 0 -5 -24 -49 -53 -99 -29 -49 -92 -157
-140 -240 -49 -82 -96 -163 -104 -178 -9 -16 -20 -36 -26 -46 -5 -9 -39 -66
-74 -126 -35 -61 -71 -121 -81 -135 -9 -14 -20 -35 -24 -48 -4 -12 -12 -22
-17 -22 -5 0 -9 -4 -9 -10 0 -8 -32 -64 -211 -368 -27 -45 -49 -87 -49 -92 0
-6 -4 -10 -9 -10 -5 0 -12 -11 -15 -25 -4 -14 -11 -25 -16 -25 -6 0 -10 -4
-10 -9 0 -7 -49 -94 -127 -226 l-29 -50 -2017 -3 -2016 -2 -33 53 c-18 29 -39
62 -46 73 -6 10 -15 26 -19 34 -3 8 -25 47 -49 85 -23 39 -51 86 -61 105 -11
19 -67 114 -123 210 -175 298 -200 341 -200 350 0 5 -3 10 -7 12 -10 4 -42 57
-50 81 -3 9 -9 17 -14 17 -5 0 -9 4 -9 10 0 8 -127 229 -160 280 -6 8 -13 22
-17 30 -4 8 -22 39 -40 67 -18 29 -38 64 -43 78 -5 14 -14 25 -20 25 -5 0 -10
7 -10 15 0 9 -8 28 -19 43 -17 24 -150 249 -176 297 -6 11 -44 75 -83 142 -40
67 -72 124 -72 128 0 3 -5 11 -10 18 -19 21 -150 247 -150 257 0 6 -4 10 -8
10 -4 0 -13 12 -20 28 -6 15 -23 45 -37 67 -14 22 -30 49 -36 60 -5 11 -20 36
-32 57 -12 20 -40 67 -61 105 -22 37 -43 70 -48 71 -4 2 -8 8 -8 13 0 8 -209
372 -259 449 -8 14 -14 28 -13 33 1 4 -2 7 -8 7 -5 0 -10 4 -10 9 0 7 -63 117
-72 127 -2 1 -26 -36 -53 -83z"/>
<path d="M18136 19550 c-14 -22 -26 -41 -26 -43 0 -3 -31 -57 -70 -121 -38
-65 -70 -119 -70 -121 0 -1 -18 -33 -41 -70 -22 -37 -49 -82 -59 -99 -9 -17
-48 -83 -85 -146 -60 -102 -105 -178 -152 -260 -8 -14 -25 -41 -36 -62 -12
-20 -42 -71 -66 -115 -24 -43 -47 -80 -50 -83 -3 -3 -12 -16 -20 -29 -7 -14
-24 -43 -36 -65 -13 -23 -67 -115 -120 -206 -54 -91 -109 -185 -123 -210 -14
-25 -32 -56 -41 -70 -9 -14 -26 -42 -36 -62 -11 -21 -23 -38 -28 -38 -4 0 -6
-4 -3 -9 3 -4 -3 -19 -14 -31 -11 -13 -20 -29 -20 -37 0 -7 -4 -13 -10 -13 -5
0 -10 -5 -10 -10 0 -6 -12 -29 -27 -53 -15 -23 -34 -55 -43 -72 -51 -93 -104
-180 -111 -183 -5 -2 -7 -7 -4 -12 3 -4 -2 -13 -10 -20 -8 -7 -15 -17 -15 -21
0 -5 -17 -38 -39 -72 -21 -34 -85 -142 -142 -240 -57 -98 -114 -195 -127 -215
-12 -20 -25 -44 -29 -52 -4 -8 -40 -70 -80 -138 -40 -68 -73 -128 -73 -133 0
-5 -4 -9 -10 -9 -5 0 -10 -7 -10 -15 0 -8 -5 -15 -12 -15 -6 0 -9 -3 -6 -6 4
-3 -16 -41 -43 -85 -27 -44 -49 -82 -49 -85 0 -2 -12 -22 -26 -44 l-27 -40
-2013 0 c-1108 0 -2014 -3 -2014 -6 0 -4 14 -29 30 -56 17 -26 30 -52 30 -57
0 -5 3 -11 8 -13 4 -2 18 -23 31 -48 14 -25 27 -47 30 -50 4 -3 19 -30 35 -60
17 -30 44 -77 61 -105 17 -27 35 -57 39 -65 4 -8 17 -31 29 -51 41 -68 112
-190 133 -229 11 -21 25 -44 31 -52 6 -7 25 -40 43 -73 18 -33 37 -63 42 -66
5 -3 8 -8 7 -10 -2 -2 4 -15 13 -29 9 -14 26 -44 39 -67 13 -23 52 -90 87
-147 34 -58 62 -108 62 -111 0 -3 8 -18 19 -33 36 -54 55 -87 53 -94 -1 -5 2
-8 8 -8 5 0 10 -4 10 -10 0 -5 19 -40 42 -77 22 -38 49 -81 58 -98 33 -57 158
-271 260 -445 57 -96 111 -188 120 -205 9 -16 30 -52 47 -80 16 -27 32 -58 36
-67 3 -10 11 -18 17 -18 5 0 10 -6 10 -14 0 -13 77 -147 100 -173 6 -7 8 -13
5 -13 -3 0 12 -28 34 -62 36 -58 263 -447 312 -534 11 -22 26 -45 31 -52 11
-13 48 -77 75 -129 9 -18 20 -33 23 -33 9 0 80 115 80 129 0 6 5 11 10 11 6 0
10 4 10 9 0 5 22 46 50 90 27 45 46 81 43 81 -3 0 1 8 9 18 15 17 164 268 221
372 17 30 33 57 36 60 3 3 11 14 17 25 6 11 51 89 100 172 49 84 99 170 110
190 50 89 268 460 283 483 9 14 22 36 29 50 6 14 16 32 22 40 37 57 160 272
160 280 0 5 3 10 8 10 4 0 12 10 18 23 6 12 51 92 101 177 220 378 254 436
263 450 6 8 20 34 32 58 12 23 26 42 30 42 4 0 8 6 8 14 0 7 11 29 24 49 13
19 22 38 18 41 -3 3 -1 6 5 6 6 0 23 25 38 55 16 30 32 55 37 55 4 0 7 3 6 8
-4 9 92 174 107 184 5 4 7 8 3 8 -4 0 15 36 42 81 28 44 50 84 50 89 0 4 7 13
15 20 9 7 13 15 11 17 -2 3 3 13 12 24 16 19 58 19 2032 19 1908 0 2016 -1
2026 -17 6 -10 22 -39 36 -64 14 -25 46 -79 70 -120 41 -67 107 -179 148 -251
153 -267 276 -474 282 -476 4 -2 8 -8 8 -12 0 -5 46 -87 101 -182 56 -95 111
-189 122 -208 10 -19 28 -47 38 -61 10 -14 16 -29 12 -33 -3 -3 -1 -6 5 -6 7
0 12 -6 12 -13 0 -8 12 -32 28 -53 15 -22 32 -49 38 -59 68 -122 150 -261 156
-263 5 -2 8 -9 8 -14 0 -6 13 -32 29 -57 46 -73 81 -135 88 -153 3 -10 9 -18
14 -18 5 0 9 -4 9 -10 0 -5 14 -33 31 -62 89 -149 169 -291 169 -299 0 -5 4
-9 9 -9 5 0 11 -8 15 -17 3 -10 14 -31 24 -48 20 -31 99 -166 158 -268 19 -33
34 -63 34 -67 0 -5 4 -10 8 -12 5 -2 32 -46 62 -98 30 -52 56 -97 60 -100 3
-3 14 -21 23 -40 10 -19 28 -53 42 -75 14 -22 31 -51 38 -65 7 -14 25 -44 40
-67 15 -24 27 -47 27 -53 0 -5 3 -10 8 -10 4 0 16 -20 27 -44 18 -41 21 -43
35 -27 15 16 31 43 67 111 10 19 21 37 24 40 3 3 16 25 30 50 13 25 27 46 32
48 4 2 7 9 7 17 0 7 7 18 15 25 9 7 13 15 11 18 -3 2 7 23 23 46 16 22 38 59
50 81 12 22 30 54 40 70 10 17 49 84 88 150 39 66 132 226 208 355 76 129 149
255 163 280 13 25 28 50 32 55 4 6 17 26 28 45 29 52 292 501 310 530 9 14 15
27 13 29 -1 2 2 7 7 10 5 3 19 24 31 46 11 22 32 58 45 80 14 22 31 51 39 65
25 44 81 140 222 380 239 407 265 452 265 461 0 5 5 9 10 9 6 0 10 4 10 10 0
5 35 69 79 142 43 73 97 166 120 206 l42 72 2012 0 c1107 0 2017 -4 2023 -8 6
-4 14 -17 18 -29 4 -13 12 -23 17 -23 5 0 9 -5 9 -11 0 -7 17 -39 38 -73 21
-34 42 -68 46 -76 4 -8 12 -24 19 -35 7 -11 37 -62 67 -114 30 -51 63 -106 72
-122 10 -16 14 -29 10 -29 -4 0 -2 -4 3 -8 12 -8 65 -89 65 -98 0 -3 8 -18 19
-32 16 -24 32 -52 88 -152 8 -14 23 -38 33 -55 10 -16 25 -41 33 -55 8 -14
129 -222 270 -463 142 -241 257 -443 257 -448 0 -5 5 -9 10 -9 6 0 10 -5 10
-11 0 -6 13 -29 28 -52 15 -23 33 -53 40 -67 19 -38 76 -136 88 -151 6 -8 24
-39 40 -69 16 -30 32 -56 37 -58 4 -2 7 -10 7 -18 0 -8 5 -14 10 -14 6 0 10
-4 10 -9 0 -8 20 -44 120 -216 10 -16 68 -115 129 -219 61 -104 111 -190 111
-192 0 -2 15 -27 33 -56 19 -29 37 -60 41 -68 4 -8 12 -24 19 -35 25 -41 90
-151 110 -185 11 -19 28 -48 38 -65 11 -16 24 -41 31 -55 7 -14 19 -34 28 -46
15 -20 20 -13 135 183 66 113 130 221 143 241 12 21 27 49 33 65 6 15 15 27
20 27 5 0 9 5 9 10 0 6 11 27 23 48 13 20 35 57 49 82 14 25 87 151 163 280
151 257 147 251 230 395 31 55 65 111 74 125 10 14 31 50 47 80 16 30 32 57
35 60 4 3 17 25 29 50 12 25 26 47 30 50 3 3 13 20 21 38 8 17 17 32 21 32 5
0 8 6 8 14 0 7 7 19 15 26 9 7 13 15 11 18 -3 2 7 23 23 46 16 22 39 61 52 85
13 24 29 51 34 60 6 9 89 151 185 316 96 165 177 302 180 305 3 3 16 26 30 53
13 26 29 47 34 47 5 0 6 3 3 7 -4 3 -3 11 2 17 8 9 47 76 131 221 9 17 53 91
97 165 44 74 92 157 106 183 15 26 34 59 43 72 l16 25 -2021 0 c-1865 0 -2022
1 -2028 16 -3 9 -30 57 -60 106 -29 49 -53 91 -53 93 0 2 -13 24 -30 48 -16
25 -30 50 -30 56 0 6 -5 11 -12 11 -6 0 -8 3 -5 6 4 4 -2 19 -12 33 -34 49
-301 510 -301 521 0 5 -4 10 -8 10 -4 0 -19 22 -33 50 -13 27 -27 50 -31 50
-5 0 -8 4 -8 9 0 5 -34 67 -75 136 -41 70 -75 131 -75 136 0 5 -4 9 -10 9 -5
0 -10 4 -10 9 0 6 -30 61 -67 123 -36 62 -71 123 -77 135 -6 13 -14 23 -18 23
-5 0 -8 5 -8 11 0 7 -14 35 -32 63 -17 28 -39 65 -48 81 -87 152 -207 357
-225 385 -13 19 -34 55 -48 80 -42 77 -162 283 -190 327 -15 24 -27 45 -27 48
0 2 -16 29 -35 59 -19 30 -35 58 -35 61 0 3 -8 18 -19 33 -26 38 -156 263
-164 285 -3 9 -11 17 -17 17 -5 0 -10 7 -10 15 0 8 -15 38 -33 67 -18 29 -39
65 -46 81 -8 15 -18 27 -23 27 -4 0 -8 5 -8 12 0 9 -79 147 -118 206 -6 9 -12
5 -22 -15 -8 -16 -40 -72 -72 -126 -32 -54 -58 -102 -58 -107 0 -6 -4 -10 -9
-10 -5 0 -11 -8 -14 -17 -6 -17 -42 -81 -73 -130 -7 -12 -22 -37 -32 -55 -58
-103 -457 -784 -462 -788 -3 -3 -11 -16 -17 -30 -7 -14 -26 -47 -43 -75 -17
-27 -40 -69 -52 -92 -12 -24 -26 -43 -30 -43 -4 0 -8 -5 -8 -11 0 -10 -108
-199 -120 -209 -4 -3 -12 -20 -19 -37 -8 -18 -17 -33 -22 -33 -5 0 -9 -5 -9
-11 0 -6 -22 -48 -50 -95 -27 -47 -50 -89 -50 -93 0 -5 -3 -11 -8 -13 -4 -1
-36 -52 -71 -113 -94 -163 -93 -161 -166 -285 -37 -63 -78 -133 -90 -155 -57
-100 -175 -301 -182 -311 -9 -12 -25 -39 -60 -103 -14 -25 -29 -50 -33 -56 -4
-5 -20 -32 -35 -60 -15 -27 -36 -63 -47 -80 -10 -16 -51 -86 -91 -155 l-72
-125 -2014 -3 c-1864 -2 -2016 -1 -2033 15 -10 9 -18 22 -18 30 0 7 -4 13 -10
13 -5 0 -10 5 -10 11 0 5 -39 76 -87 157 -49 81 -94 161 -103 177 -8 17 -17
32 -21 35 -3 3 -21 31 -38 64 -18 32 -46 81 -62 108 -16 27 -29 53 -29 58 0 6
-3 10 -8 10 -4 0 -16 17 -27 38 -11 20 -33 60 -50 87 -17 28 -45 75 -62 105
-44 80 -76 134 -83 140 -3 3 -12 20 -19 38 -8 17 -17 32 -22 32 -5 0 -9 6 -9
13 0 6 -10 28 -22 47 -13 19 -36 58 -53 87 -16 28 -57 98 -90 154 -33 57 -69
119 -80 138 -11 20 -46 79 -77 131 -31 52 -65 111 -75 130 -11 19 -78 134
-150 255 -71 121 -140 240 -154 265 -13 25 -27 47 -30 50 -3 3 -8 12 -12 20
-4 8 -18 33 -32 55 -13 22 -30 49 -35 60 -6 11 -16 29 -23 40 -7 11 -30 52
-52 90 -21 39 -42 72 -45 75 -4 3 -10 12 -13 20 -9 20 -56 101 -153 267 -45
76 -84 146 -87 156 -4 9 -11 17 -17 17 -5 0 -10 5 -10 10 0 9 -22 49 -84 153
-10 18 -26 47 -36 64 l-17 33 -27 -40z"/>
</g>
</svg>
